<?xml version="1.0" encoding="UTF-8" standalone="no"?>
<!-- Created with Inkscape (http://www.inkscape.org/) -->

<svg
   width="210mm"
   height="297mm"
   viewBox="0 0 210 297"
   version="1.1"
   id="svg1"
   inkscape:version="1.3.2 (091e20e, 2023-11-25, custom)"
   sodipodi:docname="plakāts.svg"
   xmlns:inkscape="http://www.inkscape.org/namespaces/inkscape"
   xmlns:sodipodi="http://sodipodi.sourceforge.net/DTD/sodipodi-0.dtd"
   xmlns:xlink="http://www.w3.org/1999/xlink"
   xmlns="http://www.w3.org/2000/svg"
   xmlns:svg="http://www.w3.org/2000/svg">
  <sodipodi:namedview
     id="namedview1"
     pagecolor="#ffffff"
     bordercolor="#000000"
     borderopacity="0.25"
     inkscape:showpageshadow="2"
     inkscape:pageopacity="0.0"
     inkscape:pagecheckerboard="0"
     inkscape:deskcolor="#d1d1d1"
     inkscape:document-units="mm"
     inkscape:zoom="0.73139029"
     inkscape:cx="397.18876"
     inkscape:cy="561.25984"
     inkscape:window-width="1920"
     inkscape:window-height="1017"
     inkscape:window-x="-8"
     inkscape:window-y="-8"
     inkscape:window-maximized="1"
     inkscape:current-layer="layer1" />
  <defs
     id="defs1" />
  <g
     inkscape:label="Slānis 1"
     inkscape:groupmode="layer"
     id="layer1">
    <path
       id="path9-8-5-7-7-4"
       style="fill:none;fill-opacity:1;stroke:#ff010d;stroke-width:0.1;stroke-dasharray:none"
       inkscape:transform-center-y="-1.736419e-06"
       transform="translate(109.48945,28.844121)"
       d="m 32.770084,117.99084 c -0.989356,-0.002 -2.318585,0.32881 -4.303614,1.08107 -3.659728,1.38693 -9.183166,2.91142 -14.58929,4.9289 0.02443,3.0186 0.10211,6.03662 0.15813,9.05475 0.03615,1.98193 0.06614,3.96389 0.09612,5.94589 5.448846,0.34564 10.820873,1.01219 13.497367,3.27473 1.529435,1.29289 1.344001,3.12502 0.19172,5.27307 9.079531,-0.50592 22.325436,16.89836 32.354614,16.82998 10.258405,-0.07 -29.130468,-11.91426 -22.963456,-18.64486 6.167012,-6.7306 24.444999,-7.3708 15.061096,-12.6013 -9.383902,-5.2305 -16.032233,2.23959 -23.566003,3.36517 -7.53377,1.12559 19.526296,-7.06096 12.335164,-11.88144 -5.393349,-3.61536 -5.303779,-6.61936 -8.271846,-6.62596 z m -4.949569,29.55841 c -0.207522,0.0116 -0.415489,0.021 -0.618567,0.0517 -2.862664,0.43291 -4.68887,3.91696 -6.094202,8.25583 2.800099,-2.97354 5.394124,-5.84933 6.712769,-8.3075 z m -6.712769,8.3075 c -6.357731,6.75153 -13.7359194,13.9972 -9.460404,17.96583 5.345854,4.96214 6.404189,-8.52997 9.460404,-17.96583 z M 10.275333,125.4338 c -4.9640658,2.13612 -9.42483258,4.79144 -11.705229,8.27805 -2.8689667,4.38649 3.9911619,4.70108 11.93984,5.09374 -0.02871,-1.89431 -0.05691,-3.78866 -0.09147,-5.68285 -0.04763,-2.56287 -0.109481,-5.12577 -0.143143,-7.68894 z" />
    <path
       id="path9-8-5-7-7"
       style="fill:none;fill-opacity:1;stroke:#ff010d;stroke-width:0.1;stroke-dasharray:none"
       inkscape:transform-center-y="-1.736419e-06"
       transform="translate(14.26349,121.91477)"
       d="m 33.145503,118.63799 c -0.787216,-0.0293 -1.855332,0.67248 -5.23534,2.26808 -2.347478,1.10817 -5.391779,1.95306 -8.59069,2.81895 -0.07606,1.59366 -0.206891,3.18452 -0.375171,4.77387 -0.356491,3.4444 -0.886262,6.86745 -1.358056,10.29704 -0.02361,0.15473 -0.05012,0.30893 -0.07441,0.46354 3.771224,0.4585 7.216632,1.30989 9.15448,3.25458 6.599026,6.62232 -20.7944969,22.13077 -12.93151,28.7352 7.862987,6.60443 6.301453,-21.66741 15.308626,-22.98878 9.007174,-1.32137 19.824419,16.19707 29.659689,14.64303 9.835268,-1.55403 -24.736055,-10.95043 -19.397783,-18.26245 5.338273,-7.31201 22.566917,-6.70872 14.223421,-12.82454 -8.343494,-6.11582 -14.510227,2.48928 -22.353157,2.63498 -7.84293,0.14571 15.755682,-8.67179 7.931299,-12.42094 -4.401216,-2.1089 -4.94926,-3.35488 -5.961393,-3.39256 z m -17.505392,6.10144 c -6.227897,1.77041 -12.3990549,4.03129 -15.01872144,8.81961 -2.77008216,5.06325 5.19603374,4.79395 13.28187644,5.35936 0.03276,-0.20539 0.06738,-0.41043 0.09922,-0.61598 0.466817,-3.39277 0.991298,-6.77858 1.344621,-10.18594 0.120067,-1.12473 0.219462,-2.2503 0.293005,-3.37705 z" />
    <path
       sodipodi:type="star"
       style="fill:none;fill-opacity:1;stroke:#ff010d;stroke-width:0.1;stroke-dasharray:none"
       id="path9-8-5-7"
       inkscape:flatsided="false"
       sodipodi:sides="5"
       sodipodi:cx="34.728378"
       sodipodi:cy="137.82826"
       sodipodi:r1="26.358437"
       sodipodi:r2="13.179218"
       sodipodi:arg1="0.81451614"
       sodipodi:arg2="1.4428347"
       inkscape:rounded="0.5"
       inkscape:randomized="0.3"
       d="m 57.231462,161.4281 c -9.205627,2.91438 -17.420324,-13.77675 -26.34621,-12.50763 -8.925886,1.26911 -7.184995,25.73268 -15.063469,19.75514 -7.8784755,-5.97754 15.796285,-18.87661 9.88197,-25.92321 -5.914314,-7.04661 -26.8157836,-0.91723 -23.031446,-9.34593 3.7843377,-8.4287 17.221474,-6.3968 24.68137,-10.66667 7.459895,-4.26986 1.518797,-5.89121 9.817485,-3.29555 8.298689,2.59565 -11.548134,12.06518 -3.526762,12.96051 8.021372,0.89533 13.907074,-8.73235 21.140229,-1.90465 7.233155,6.82769 -8.92836,5.25421 -13.385564,13.04762 -4.457204,7.79341 25.038023,14.966 15.832397,17.88037 z"
       inkscape:transform-center-y="-1.736419e-06"
       transform="translate(65.92278,-71.809957)" />
    <path
       style="fill:#808080;fill-opacity:0;stroke:#ff010d;stroke-width:1;stroke-dasharray:none"
       d="m 13.384896,198.24117 c 1.771015,0.20495 3.675841,-0.31827 5.42631,0 1.125514,0.20464 2.127384,0.89719 3.255785,1.08526 1.290582,0.21509 2.688712,-0.2151 3.979294,0 5.235561,0.87259 11.005795,0.52731 16.278928,0 0.599932,-0.06 1.220202,0.13079 1.808768,0 0.526431,-0.11699 0.942081,-0.53416 1.447017,-0.72351 1.287338,-0.48275 2.639626,-0.77611 3.979294,-1.08526 2.46957,-0.5699 5.189296,-0.6445 7.596833,-1.44702 0.767397,-0.2558 1.415534,-0.79488 2.170525,-1.08526 3.736012,-1.43693 7.863496,-1.70886 11.576124,-3.25578 1.997538,-0.83231 3.836892,-2.00714 5.788064,-2.89404 0.694285,-0.31558 1.476238,-0.40792 2.170523,-0.7235 3.449627,-1.56802 6.528128,-3.79362 10.129112,-5.06456 1.458272,-0.51468 4.345594,-1.26659 6.149816,-1.44701 0.479947,-0.048 0.97908,0.11698 1.447017,0 0.523169,-0.1308 0.928495,-0.57536 1.447014,-0.72351 1.159452,-0.33127 2.41169,0 3.61754,0 4.72807,0 9.4656,-0.38193 14.10841,0.72351 3.44233,0.8196 7.14467,2.07477 10.49086,3.25578 4.0751,1.43827 8.34766,2.58462 12.29963,4.34105 2.80935,1.2486 5.511,2.73069 8.32035,3.97929 0.94147,0.41844 1.95858,0.65352 2.89403,1.08526 0.63841,0.29465 1.14172,0.86292 1.80877,1.08527 0.45758,0.15252 0.98943,-0.15253 1.44701,0 0.32356,0.10785 0.41184,0.58498 0.72351,0.7235 1.60442,0.71308 3.43439,0.79495 5.06456,1.44702 1.60302,0.64121 3.20377,1.31393 4.7028,2.17052 0.29612,0.16922 0.39994,0.61566 0.7235,0.72351 0.45759,0.15253 0.97029,-0.0733 1.44702,0 1.09881,0.16905 2.16309,0.51863 3.25579,0.72351 0.83805,0.15713 1.72337,0.0921 2.53227,0.36175 0.32357,0.10786 0.41846,0.57098 0.72351,0.72351 0.21571,0.10785 0.49472,-0.0763 0.72351,0 0.5116,0.17053 0.92675,0.58162 1.44702,0.72351 2.34379,0.63922 5.17937,0.36175 7.59683,0.36175"
       id="path5" />
    <path
       id="path8"
       style="fill:#808080;fill-opacity:0;stroke:#ff010d"
       d="m 155.19246,244.00304 a 28.216808,27.312424 0 0 1 -28.21681,27.31242 28.216808,27.312424 0 0 1 -28.216811,-27.31242 28.216808,27.312424 0 0 1 28.216811,-27.31243 28.216808,27.312424 0 0 1 28.21681,27.31243 z" />
    <path
       id="path7"
       style="fill:#808080;fill-opacity:1;stroke:#ff010d;stroke-width:1;stroke-dasharray:none"
       d="M 76.294568,219.47808 A 34.185749,31.110842 0 0 0 64.882861,229.4816 c 0.719569,-0.0103 1.439125,-0.0237 2.158525,-0.0336 3.1979,-0.0431 6.395594,-0.0631 9.59373,-0.0775 1.96408,0.0164 3.928446,-0.0308 5.887495,-0.17105 z m 8.429976,13.15785 c -0.455448,0.053 -0.911406,0.10089 -1.369425,0.13281 -2.230091,0.17648 -4.466488,0.24021 -6.703467,0.21911 -3.186943,0.0144 -6.373949,0.0346 -9.560657,0.0775 -1.480598,0.0204 -2.961931,0.0377 -4.442623,0.0687 a 34.185749,31.110842 0 0 0 -1.225765,23.94376 34.185749,31.110842 0 0 0 38.074679,19.90731 34.185749,31.110842 0 0 0 28.201894,-30.63069 H 93.513155 Z" />
    <path
       id="path3"
       style="fill-opacity:1;stroke:#ff010d;stroke-width:1;stroke-dasharray:none;fill:#00ffff"
       d="m 98.482878,37.454045 a 62.402557,26.046284 0 0 0 -7.857402,0.37052 62.402557,26.046284 0 0 0 -51.479028,25.644429 h 31.132466 c 0.589042,-1.974305 1.686545,-3.796768 2.823084,-5.499406 1.474126,-1.955719 3.32758,-3.56799 5.61051,-4.509802 1.784769,-0.736298 2.703274,-0.824266 4.634343,-1.225248 5.617858,-0.919024 11.308346,-1.101611 16.988629,-1.113111 4.47021,0.05383 8.89344,0.660577 13.19351,1.868103 2.29866,0.743004 4.55685,1.847801 5.96501,3.897437 0.27715,0.403401 0.48362,0.85095 0.72554,1.276408 1.11099,2.499756 1.51914,5.238709 1.65261,7.951452 0.0489,2.094689 -0.28384,4.13385 -0.971,6.106088 -0.48014,1.336766 -1.43476,2.375375 -2.38694,3.393074 L 132.98,85.969946 A 62.402557,26.046284 0 0 0 160.12718,54.491248 62.402557,26.046284 0 0 0 98.482878,37.454045 Z m 1.859322,17.284733 c -5.441327,0.01 -10.891404,0.177823 -16.275497,1.040763 -0.714288,0.14118 -1.43598,0.249874 -2.143021,0.423747 -2.37641,0.584394 -4.352154,1.821097 -5.822384,3.788916 -0.740868,1.085191 -1.480858,2.242259 -1.99316,3.47679 h 27.440702 l 13.99449,10.01851 0.10646,-0.104386 c 0.68185,-0.729699 1.45559,-1.432726 1.84226,-2.371949 0.55564,-1.5249 0.78426,-3.110575 0.76636,-4.735111 -0.0846,-2.167614 -0.4159,-4.362252 -1.21853,-6.387207 -0.12181,-0.244951 -0.22132,-0.502773 -0.36535,-0.735356 -0.91242,-1.473379 -2.55733,-2.153206 -4.12894,-2.682523 -3.97383,-1.131224 -8.07061,-1.669744 -12.20339,-1.732194 z" />
    <text
       xml:space="preserve"
       style="font-size:6.69483px;fill:#808080;fill-opacity:1;stroke:#ff010d;stroke-width:0;stroke-dasharray:none"
       id="text5"><textPath
         xlink:href="#path5"
         id="textPath5"><tspan
           id="tspan5"
           style="fill:#808080;fill-opacity:1;stroke-width:0;stroke-dasharray:none">Nekad neliec publiskās bildēs savu māju vai skolu!</tspan></textPath></text>
    <text
       xml:space="preserve"
       style="font-size:7.26172px;white-space:pre;shape-inside:url(#path8);fill:#808080;fill-opacity:1;stroke:#ff010d;stroke-width:0.1;stroke-dasharray:none"
       x="41.601681"
       y="129.33627"
       id="text6"><tspan
         x="106.33363"
         y="232.39364"
         id="tspan1">Tās var </tspan><tspan
         x="101.04423"
         y="241.47079"
         id="tspan2">viegli atrast! </tspan><tspan
         x="100.99934"
         y="250.54794"
         id="tspan3">Tu negribi </tspan><tspan
         x="106.16618"
         y="259.62509"
         id="tspan4">ciemiņus!</tspan></text>
    <path
       id="text1"
       style="font-size:13.8784px;white-space:pre;fill:#000000;fill-opacity:0.463115;stroke:#ff010d;stroke-width:0"
       d="m 84.359192,28.620475 -1.266073,0.140043 0.238229,2.162142 -0.855245,0.09457 0.117305,1.064018 0.855762,-0.09457 0.441317,4.001306 c 0.100622,0.911557 0.373821,1.551809 0.819071,1.920813 0.44525,0.369005 1.051664,0.511091 1.819527,0.426331 0.220031,-0.02429 0.467095,-0.072 0.74104,-0.143144 0.278436,-0.07164 0.533241,-0.152192 0.764295,-0.241329 l -0.125574,-1.138432 -0.0677,0.0078 c -0.09433,0.05132 -0.25009,0.120606 -0.467672,0.208256 -0.218077,0.08316 -0.43061,0.136362 -0.63717,0.159163 -0.354744,0.03916 -0.623654,0.02791 -0.807703,-0.03359 -0.180054,-0.06648 -0.329418,-0.184238 -0.448035,-0.352951 -0.129084,-0.181192 -0.215098,-0.380881 -0.257348,-0.598929 -0.04275,-0.222539 -0.08557,-0.531401 -0.129191,-0.926559 l -0.378788,-3.428214 2.613793,-0.288355 -0.117822,-1.064534 -2.613277,0.288354 z m 22.536608,1.140499 c -0.45599,-0.01654 -0.9202,0.0071 -1.39268,0.07131 -0.47248,0.06424 -0.83392,0.125768 -1.08469,0.184484 l -0.047,1.293462 0.0677,0.0026 c 0.44399,-0.151164 0.87279,-0.262431 1.28675,-0.333313 0.41411,-0.0754 0.78832,-0.106682 1.12241,-0.09457 0.2754,0.01 0.53913,0.0374 0.79065,0.08268 0.25151,0.04529 0.46551,0.12319 0.64234,0.233577 0.18569,0.11523 0.32458,0.269284 0.41702,0.462504 0.097,0.193385 0.14019,0.434527 0.12971,0.72347 l -0.007,0.196371 c -0.74172,0.0093 -1.43691,0.03851 -2.08514,0.08733 -0.64823,0.04882 -1.20645,0.166486 -1.67432,0.35295 -0.46335,0.186628 -0.82551,0.453842 -1.08675,0.801502 -0.25657,0.343308 -0.3952,0.801738 -0.416,1.375109 -0.0254,0.699785 0.19087,1.283684 0.64854,1.752348 0.45768,0.468664 1.02722,0.715286 1.70894,0.740007 0.37021,0.01342 0.69453,-0.01062 0.97255,-0.07286 0.27786,-0.05773 0.52457,-0.134849 0.74053,-0.230994 0.18353,-0.07472 0.37287,-0.176325 0.5674,-0.304891 0.19921,-0.132917 0.35667,-0.23585 0.47233,-0.308508 l -0.0295,0.806152 1.26659,0.04599 0.18603,-5.133536 c 0.0177,-0.487592 -0.0423,-0.898538 -0.17931,-1.233517 -0.13704,-0.334978 -0.34374,-0.611931 -0.62064,-0.829923 -0.28124,-0.222671 -0.61918,-0.384021 -1.01337,-0.484208 -0.38951,-0.104539 -0.85064,-0.1662 -1.38338,-0.185519 z m -4.83536,0.07751 c -0.40206,0.0043 -0.79623,0.0944 -1.18288,0.270268 -0.38217,0.171298 -0.82394,0.462839 -1.325497,0.874882 l -0.0124,-1.117762 -1.273824,0.01344 0.08216,7.569047 1.273824,-0.01395 -0.05839,-5.373316 c 0.335827,-0.279228 0.686008,-0.506508 1.050068,-0.682129 0.364,-0.180138 0.74231,-0.272218 1.13533,-0.276469 0.24394,-0.0026 0.45454,0.0062 0.63097,0.02687 0.18089,0.01611 0.36633,0.04576 0.55655,0.08888 l 0.0677,-0.001 -0.014,-1.307414 c -0.19911,-0.02947 -0.34856,-0.04837 -0.44804,-0.05633 -0.0995,-0.01248 -0.26027,-0.01738 -0.48162,-0.01499 z m -6.672981,0.103353 -1.271757,0.07596 0.337964,5.641516 c -0.322294,0.286316 -0.674704,0.527067 -1.056783,0.72192 -0.37757,0.194583 -0.731197,0.30172 -1.0604,0.321427 -0.36979,0.02214 -0.653865,-0.0062 -0.853178,-0.08475 -0.199314,-0.07858 -0.366073,-0.213492 -0.499711,-0.404627 -0.128859,-0.186895 -0.219543,-0.414227 -0.271818,-0.682645 -0.05254,-0.272928 -0.09023,-0.601118 -0.113172,-0.984436 l -0.257348,-4.302063 -1.271757,0.07596 0.293522,4.904094 c 0.05615,0.938003 0.319549,1.637479 0.790649,2.098063 0.47083,0.456074 1.103347,0.660396 1.897042,0.612882 0.473511,-0.02835 0.90107,-0.144427 1.282609,-0.348299 0.381539,-0.203872 0.776256,-0.487759 1.184424,-0.851628 l 0.05013,0.838709 1.271757,-0.07596 z m 22.821861,0.773079 -0.99115,7.504452 1.26349,0.166914 0.73949,-5.603275 c 0.37976,-0.218716 0.76919,-0.388493 1.16788,-0.509013 0.3987,-0.12052 0.77031,-0.157673 1.11518,-0.112138 0.33591,0.04435 0.6029,0.127231 0.80099,0.249081 0.19867,0.117371 0.34178,0.277695 0.42891,0.48059 0.085,0.184389 0.12755,0.431674 0.12764,0.741557 6.9e-4,0.305404 -0.0216,0.630264 -0.0672,0.975134 l -0.5643,4.273125 1.26297,0.166398 0.64337,-4.870504 c 0.12123,-0.91816 8.4e-4,-1.649292 -0.36019,-2.193665 -0.36103,-0.544372 -0.94684,-0.870163 -1.75751,-0.977201 -0.44341,-0.05855 -0.88748,-0.02417 -1.33274,0.10387 -0.44525,0.128043 -0.88664,0.3297 -1.32395,0.604614 l 0.11007,-0.833024 z m -39.624453,0.816488 c -0.402483,-0.02553 -0.867139,0.0052 -1.393196,0.09147 -0.450269,0.07387 -0.900343,0.188891 -1.350822,0.345199 -0.450479,0.156307 -0.793102,0.287711 -1.027328,0.394807 l 0.209807,1.277442 0.06666,-0.01085 c 0.405377,-0.235892 0.804001,-0.429585 1.195793,-0.580843 0.391061,-0.155716 0.751687,-0.260589 1.081588,-0.31471 0.271944,-0.04461 0.535661,-0.06964 0.791166,-0.07493 0.255505,-0.0053 0.480782,0.02852 0.675928,0.101803 0.204793,0.07628 0.371432,0.200403 0.500227,0.371554 0.133254,0.170419 0.223461,0.39836 0.270268,0.683679 L 79.637,34.00981 c -0.72528,0.155609 -1.400942,0.321213 -2.02675,0.497128 -0.625808,0.175914 -1.149664,0.401747 -1.57148,0.676961 -0.417358,0.274483 -0.72002,0.607523 -0.907439,0.999939 -0.183691,0.387226 -0.228792,0.864223 -0.135909,1.430404 0.113362,0.691007 0.440615,1.221065 0.981853,1.590083 0.541238,0.369018 1.148419,0.498009 1.821594,0.387574 0.365565,-0.05997 0.678201,-0.147607 0.938444,-0.26355 0.260974,-0.111485 0.487869,-0.235677 0.680578,-0.372587 0.16516,-0.109501 0.330794,-0.246884 0.496094,-0.411345 0.169027,-0.16965 0.303023,-0.301252 0.402043,-0.395324 l 0.130224,0.795817 1.25057,-0.205156 -0.831474,-5.068941 C 80.786361,33.189337 80.64676,32.798032 80.446252,32.496724 80.245745,32.195417 79.988193,31.965325 79.67369,31.806327 79.353997,31.643603 78.991077,31.551753 78.584867,31.531409 Z m 51.022723,0.800468 c -0.73324,-0.01162 -1.38584,0.199081 -1.95802,0.632519 -0.75757,0.57439 -1.25912,1.466161 -1.50481,2.674772 -0.2457,1.208612 -0.13211,2.224837 0.34106,3.049427 0.4776,0.825489 1.24106,1.345261 2.2903,1.558561 1.04038,0.211499 1.94171,0.03037 2.70371,-0.54312 0.762,-0.573489 1.26584,-1.46461 1.51154,-2.673221 0.24569,-1.208612 0.12981,-2.225488 -0.34779,-3.050977 -0.4767,-0.829916 -1.23545,-1.350679 -2.27583,-1.562178 -0.26231,-0.05333 -0.51574,-0.08191 -0.76016,-0.08578 z m -58.651198,0.648539 c -0.474416,-0.0052 -0.931555,0.04352 -1.371492,0.146244 -0.470733,0.109911 -0.88315,0.271143 -1.237134,0.483692 -0.350612,0.207122 -0.625119,0.442639 -0.823205,0.706933 -0.205859,0.270748 -0.341255,0.555027 -0.406177,0.853178 -0.06052,0.297124 -0.05537,0.59768 0.0155,0.901237 0.112992,0.483931 0.342934,0.861571 0.689363,1.133264 0.349802,0.266267 0.868175,0.409888 1.554944,0.430465 0.247548,0.0071 0.51795,0.0042 0.811837,-0.0088 0.298286,-0.01398 0.540317,-0.02176 0.725537,-0.02325 0.499785,-0.0054 0.850548,0.04758 1.052649,0.15813 0.202101,0.110546 0.336831,0.310638 0.404626,0.600997 0.08834,0.378347 -8.15e-4,0.691599 -0.267683,0.939478 -0.266869,0.247879 -0.673008,0.435383 -1.218531,0.562756 -0.439937,0.10272 -0.919596,0.124207 -1.439188,0.0646 -0.52062,-0.06401 -1.011378,-0.197672 -1.471745,-0.401009 l -0.06563,0.0155 0.325044,1.392679 c 0.343909,0.08208 0.757833,0.136085 1.241785,0.162264 0.487324,0.02075 1.003737,-0.03282 1.54926,-0.160197 0.963463,-0.224956 1.671796,-0.617656 2.125451,-1.178222 0.458055,-0.561593 0.608814,-1.178979 0.451652,-1.852084 -0.125318,-0.536723 -0.382127,-0.931284 -0.770495,-1.183907 -0.387342,-0.248223 -0.884765,-0.371035 -1.491899,-0.368453 -0.199445,1.76e-4 -0.448439,0.0072 -0.746724,0.02119 -0.293887,0.01295 -0.561441,0.02005 -0.802535,0.02067 -0.43614,-2.29e-4 -0.764227,-0.05608 -0.984953,-0.166915 -0.225125,-0.109808 -0.373024,-0.31656 -0.443901,-0.620117 -0.08012,-0.343151 0.01554,-0.636576 0.287838,-0.881083 0.271268,-0.248906 0.63362,-0.426466 1.086755,-0.532267 0.435539,-0.101693 0.898954,-0.124155 1.390096,-0.06718 0.490115,0.05258 0.920715,0.158602 1.291911,0.317811 l 0.06615,-0.0155 -0.310059,-1.326534 c -0.335109,-0.08413 -0.741258,-0.125791 -1.219047,-0.125574 z m 72.317038,0.406693 -0.34624,0.984436 3.64371,1.282093 0.34623,-0.984436 z m -13.61313,0.05271 c 0.15649,0.0013 0.31952,0.01932 0.48886,0.05374 0.6685,0.135899 1.1433,0.476382 1.4242,1.02216 0.28181,0.54135 0.32501,1.292401 0.12971,2.253092 -0.1908,0.938556 -0.5251,1.608447 -1.00304,2.00918 -0.4726,0.397205 -1.04125,0.528257 -1.70532,0.393257 -0.67293,-0.136799 -1.14871,-0.482514 -1.42782,-1.037146 -0.27821,-0.559059 -0.32284,-1.303754 -0.13384,-2.233455 0.1953,-0.960691 0.52632,-1.635432 0.9927,-2.024683 0.35378,-0.294583 0.7651,-0.439959 1.23455,-0.436149 z m -20.87676,0.173116 -0.076,2.106332 c -0.32488,0.232335 -0.67554,0.429562 -1.05214,0.592212 -0.37643,0.158135 -0.78862,0.229114 -1.23558,0.212907 -0.53725,-0.01948 -0.93249,-0.14225 -1.18649,-0.368453 -0.25383,-0.230718 -0.3728,-0.562391 -0.35708,-0.995805 0.0139,-0.383753 0.13744,-0.680313 0.37103,-0.888835 0.23376,-0.213036 0.5354,-0.364691 0.90486,-0.455269 0.31011,-0.07465 0.7278,-0.125256 1.25315,-0.151412 0.52986,-0.02599 0.98912,-0.04318 1.37821,-0.05168 z m 26.91619,0.187069 -0.28939,1.02371 4.15427,1.173055 -5.75727,4.155302 -0.2558,0.906922 5.88233,1.66088 0.293,-1.037146 -4.37596,-1.235583 5.78208,-4.169255 0.24701,-0.873848 z m -55.896332,1.226282 0.341064,2.079459 c -0.272574,0.291934 -0.577114,0.554745 -0.914156,0.788583 -0.337773,0.22938 -0.727568,0.38028 -1.168921,0.452685 -0.530515,0.08703 -0.942424,0.04496 -1.2361,-0.126607 -0.294407,-0.176028 -0.476526,-0.477909 -0.546737,-0.905888 -0.06217,-0.378939 3.02e-4,-0.694087 0.188102,-0.944645 0.187069,-0.255016 0.453082,-0.462991 0.797368,-0.624768 0.289255,-0.134437 0.688549,-0.266422 1.198376,-0.395841 0.514286,-0.130151 0.961263,-0.23779 1.341004,-0.322978 z m 63.854502,1.168404 -2.51199,7.140133 1.20147,0.42323 2.51251,-7.14065 z m -84.695608,0.0987 -1.185457,0.467672 2.073259,5.25756 c -0.217431,0.372256 -0.477132,0.710524 -0.779798,1.014408 -0.298462,0.302228 -0.601153,0.513609 -0.907955,0.634587 -0.344626,0.135893 -0.623811,0.197279 -0.837675,0.184485 -0.213863,-0.01279 -0.414087,-0.08927 -0.60048,-0.229444 -0.180533,-0.13763 -0.337716,-0.325915 -0.470772,-0.564823 -0.134714,-0.243111 -0.27203,-0.542969 -0.412895,-0.900204 l -1.581299,-4.009574 -1.18494,0.467155 1.801957,4.57078 c 0.344705,0.874175 0.81268,1.456725 1.403532,1.748214 0.589195,0.287287 1.253474,0.285473 1.99316,-0.0062 0.44129,-0.17401 0.811692,-0.417381 1.111043,-0.729671 0.299351,-0.31229 0.586477,-0.704545 0.861446,-1.177189 l 0.308509,0.781347 1.18494,-0.467155 z m 89.342348,1.367875 -3.47317,6.725688 1.13223,0.58446 2.59312,-5.021399 c 0.43139,-0.07721 0.84102,-0.112508 1.22887,-0.10542 0.39187,0.0092 0.74254,0.09359 1.05161,0.253215 0.32514,0.167912 0.551,0.340867 0.678,0.518314 0.12907,0.173434 0.19525,0.369864 0.19844,0.590145 0.001,0.204094 -0.0552,0.447261 -0.17002,0.728638 -0.10872,0.279436 -0.23985,0.567509 -0.39326,0.864547 l -1.97765,3.829223 1.13171,0.584978 2.22364,-4.305164 c 0.0622,-0.120421 0.11999,-0.242853 0.17415,-0.367419 0.0562,-0.128581 0.10234,-0.242523 0.13797,-0.341065 0.44356,-0.08109 0.8645,-0.117807 1.26246,-0.110587 0.40003,0.0032 0.75828,0.08686 1.07538,0.25063 0.32514,0.167913 0.55152,0.340351 0.67852,0.517798 0.12699,0.177447 0.19215,0.376581 0.19533,0.596863 0.001,0.204094 -0.0557,0.446744 -0.17053,0.728121 -0.11079,0.28345 -0.2409,0.569336 -0.39016,0.858345 l -1.97765,3.829741 1.13223,0.58446 2.25412,-4.365108 c 0.4146,-0.802804 0.56032,-1.518143 0.43719,-2.146122 -0.11705,-0.629921 -0.54455,-1.135789 -1.28313,-1.51722 -0.4295,-0.221811 -0.87765,-0.344127 -1.3441,-0.366386 -0.46439,-0.02627 -1.02495,0.03546 -1.68155,0.184485 0.0196,-0.422039 -0.0812,-0.812476 -0.30283,-1.170988 -0.2176,-0.35644 -0.55526,-0.652514 -1.01286,-0.888835 -0.39738,-0.205226 -0.81492,-0.317014 -1.25315,-0.334863 -0.43421,-0.01578 -0.90362,0.03151 -1.40818,0.14211 l 0.3855,-0.746724 z m -100.731316,1.289327 -1.122413,0.602547 1.029395,1.916679 -0.758093,0.40721 0.506429,0.943095 0.758093,-0.40721 1.904277,3.546554 c 0.433851,0.807981 0.926052,1.29991 1.476912,1.475878 0.55086,0.175969 1.166817,0.08124 1.847432,-0.28422 0.19503,-0.104723 0.406016,-0.241466 0.633554,-0.409794 0.231518,-0.170465 0.438053,-0.340018 0.619083,-0.509013 l -0.542086,-1.009241 -0.05943,0.03204 c -0.06833,0.08284 -0.186961,0.20587 -0.35605,0.368453 -0.171227,0.158602 -0.348661,0.287195 -0.531751,0.385506 -0.314436,0.168839 -0.568529,0.259077 -0.762227,0.270784 -0.191855,0.0056 -0.374201,-0.04801 -0.547253,-0.160196 -0.187425,-0.119857 -0.341344,-0.272923 -0.461988,-0.459404 -0.12278,-0.190461 -0.278048,-0.461062 -0.466121,-0.81132 l -1.631942,-3.038574 2.316655,-1.243852 -0.506946,-0.943612 -2.316138,1.243852 z m 114.298446,3.530017 -0.65784,0.810287 2.9993,2.434476 0.65733,-0.810286 z M 43.735315,44.248462 c -0.358496,0.01278 -0.720633,0.109104 -1.085722,0.288354 -0.364347,0.172905 -0.75541,0.42435 -1.173572,0.754993 -0.357918,0.283008 -0.695779,0.602363 -1.013891,0.957564 -0.318113,0.355202 -0.553542,0.636607 -0.706417,0.843877 l 0.802535,1.014925 0.05323,-0.04186 c 0.240067,-0.402918 0.494536,-0.765471 0.763777,-1.087789 0.26644,-0.325862 0.530996,-0.592599 0.793234,-0.799951 0.216168,-0.170926 0.434391,-0.320503 0.655257,-0.449069 0.220866,-0.128565 0.43459,-0.208168 0.640787,-0.238745 0.216087,-0.03264 0.421885,-0.0055 0.617534,0.08165 0.199192,0.08439 0.388592,0.239839 0.567924,0.466638 l 0.121956,0.154513 c -0.558757,0.487887 -1.06925,0.960607 -1.531173,1.418001 -0.461922,0.457394 -0.810561,0.908644 -1.045931,1.353923 -0.231825,0.442476 -0.334448,0.880579 -0.307991,1.314648 0.0272,0.427723 0.218781,0.86666 0.574642,1.316716 0.434319,0.54928 0.977576,0.853997 1.629875,0.914156 0.652298,0.06016 1.246181,-0.121559 1.781286,-0.54467 0.290587,-0.229769 0.521129,-0.458121 0.692464,-0.685746 0.174138,-0.224082 0.312337,-0.443088 0.414445,-0.656291 0.09131,-0.17587 0.169319,-0.375448 0.234095,-0.599446 0.06552,-0.230345 0.118721,-0.410758 0.15968,-0.541053 l 0.500228,0.63252 0.994254,-0.785999 -3.185852,-4.029211 c -0.302622,-0.382724 -0.614883,-0.65698 -0.936377,-0.823206 -0.321494,-0.166225 -0.658124,-0.242961 -1.010274,-0.229443 z m 117.552515,1.005107 -4.77077,5.876643 0.98909,0.803052 4.77077,-5.87716 z m -115.877165,1.747696 1.307414,1.65313 c -0.09675,0.387506 -0.236239,0.765289 -0.417546,1.133264 -0.184109,0.364431 -0.451188,0.685328 -0.802018,0.962732 -0.421706,0.333444 -0.80253,0.496439 -1.142566,0.488859 -0.342838,-0.01112 -0.648776,-0.186901 -0.917774,-0.5271 -0.238174,-0.301218 -0.33621,-0.606537 -0.293522,-0.91674 0.03989,-0.313746 0.171179,-0.62532 0.393775,-0.933793 0.187735,-0.257871 0.473225,-0.566599 0.856278,-0.927075 0.386598,-0.363278 0.725207,-0.674581 1.015959,-0.933277 z m 119.297625,2.995166 c -0.23941,0.01364 -0.48307,0.05032 -0.7307,0.109555 -0.48898,0.119594 -1.00047,0.364772 -1.53479,0.735872 -0.97588,0.677773 -1.58198,1.420991 -1.8185,2.228804 -0.23022,0.808947 -0.0875,1.584361 0.42789,2.326473 0.30925,0.445268 0.62427,0.768264 0.94516,0.968934 0.32717,0.201803 0.72649,0.372474 1.19786,0.51263 l -0.56793,0.394291 c -0.25232,0.175242 -0.49985,0.306143 -0.74259,0.392224 -0.24273,0.08608 -0.48132,0.114113 -0.71623,0.08475 -0.24233,-0.02421 -0.48766,-0.123163 -0.73536,-0.297656 -0.2477,-0.174492 -0.49519,-0.44012 -0.74259,-0.796334 -0.25771,-0.371056 -0.46518,-0.776859 -0.6227,-1.217496 -0.16123,-0.438061 -0.2676,-0.765813 -0.31936,-0.982886 l -0.0388,-0.05529 -1.06867,0.742074 c 0.12598,0.363539 0.27506,0.716754 0.447,1.059366 0.17082,0.3489 0.37061,0.688303 0.59997,1.018543 0.69066,0.994431 1.44885,1.559593 2.27479,1.695504 0.82595,0.13591 1.76619,-0.16211 2.81999,-0.894003 l 5.51026,-3.826639 -0.68058,-0.979786 -0.31368,0.118856 c -0.0397,-0.373954 -0.10918,-0.708144 -0.20877,-1.002006 -0.0933,-0.292728 -0.26472,-0.618827 -0.5147,-0.978751 -0.23709,-0.341372 -0.54983,-0.6334 -0.93793,-0.875399 -0.38438,-0.244576 -0.79222,-0.395506 -1.22318,-0.453719 -0.2312,-0.03194 -0.46648,-0.04155 -0.7059,-0.02791 z m 0.53175,1.237651 c 0.61526,0.06222 1.12243,0.380877 1.52187,0.956014 0.16494,0.237476 0.30207,0.494363 0.41135,0.770496 0.11556,0.277265 0.20676,0.598885 0.27388,0.964799 l -3.38945,2.354378 c -0.37448,-0.119443 -0.72777,-0.291771 -1.0604,-0.517281 -0.32635,-0.224377 -0.59535,-0.488967 -0.80667,-0.793233 -0.3943,-0.567717 -0.4968,-1.098827 -0.30696,-1.593702 0.18984,-0.494874 0.6336,-0.984668 1.33118,-1.469161 0.7347,-0.510263 1.40994,-0.734533 2.0252,-0.67231 z m -130.129522,0.3514 c -0.808638,0.05541 -1.549948,0.306969 -2.224153,0.755509 -0.392193,0.263797 -0.772544,0.632737 -1.140499,1.105876 -0.370207,0.467159 -0.758574,1.149202 -1.164787,2.046387 l -1.03973,2.2965 9.192204,4.161503 1.051099,-2.320788 c 0.381988,-0.843683 0.631623,-1.549019 0.749308,-2.115633 0.119549,-0.57073 0.144663,-1.124739 0.07545,-1.661914 -0.100599,-0.774548 -0.408373,-1.496656 -0.923458,-2.166276 -0.513223,-0.673737 -1.187681,-1.19942 -2.023133,-1.577682 -0.893068,-0.404349 -1.74366,-0.578891 -2.552299,-0.523482 z m -0.03617,1.344621 c 0.607528,-0.02744 1.271393,0.121946 1.99161,0.448034 0.716101,0.324225 1.260439,0.7099 1.633492,1.156519 0.374916,0.442503 0.605028,0.95807 0.690397,1.547192 0.06875,0.472493 0.04681,0.948328 -0.06615,1.42782 -0.11109,0.475376 -0.299913,1.007765 -0.566374,1.596285 l -0.519865,1.14825 -7.093107,-3.21169 0.519865,-1.14825 c 0.257144,-0.567943 0.519216,-1.03698 0.785999,-1.40715 0.262667,-0.372033 0.579027,-0.6927 0.948779,-0.961698 0.509438,-0.369407 1.067822,-0.567869 1.67535,-0.595312 z m 131.690665,8.159708 c -0.93816,-0.0534 -1.66329,0.127278 -2.17557,0.541569 -0.50778,0.414548 -0.78422,1.018462 -0.82941,1.812293 -0.027,0.473592 0.0383,0.911973 0.19637,1.314648 0.15808,0.402675 0.39408,0.827631 0.70797,1.275374 l -0.83871,-0.04754 -0.0724,1.271757 7.55716,0.430465 0.0724,-1.271757 -5.64255,-0.321428 c -0.24686,-0.353428 -0.4447,-0.731102 -0.59376,-1.133264 -0.14932,-0.397651 -0.2146,-0.761113 -0.19585,-1.090372 0.0211,-0.369853 0.0822,-0.64938 0.18345,-0.838192 0.10124,-0.188813 0.25453,-0.338584 0.45992,-0.449068 0.20062,-0.106231 0.43735,-0.169491 0.71003,-0.19017 0.27719,-0.02042 0.60725,-0.01976 0.99064,0.0021 l 4.30309,0.244947 0.0724,-1.271757 z m -4.05194,8.742619 -0.89091,0.911056 4.04162,3.95118 c -0.0526,0.435075 -0.13901,0.836854 -0.25942,1.205611 -0.12357,0.371987 -0.30718,0.682459 -0.55035,0.931209 -0.25581,0.261672 -0.48715,0.427176 -0.69402,0.496611 -0.20363,0.07259 -0.41115,0.07803 -0.6227,0.01654 -0.19554,-0.05848 -0.41108,-0.183997 -0.64647,-0.376204 -0.23532,-0.185819 -0.47253,-0.395722 -0.71158,-0.629419 l -3.08147,-3.012736 -0.8909,0.911055 3.4649,3.38739 c 0.0969,0.09474 0.19701,0.186121 0.30024,0.274402 0.10647,0.09144 0.20148,0.168566 0.28526,0.231511 -0.0524,0.447853 -0.14057,0.860825 -0.26407,1.2392 -0.12027,0.381534 -0.305,0.700287 -0.55449,0.955498 -0.2558,0.261671 -0.48714,0.427175 -0.69401,0.49661 -0.20687,0.06943 -0.41581,0.07338 -0.62735,0.01189 -0.19554,-0.05848 -0.41108,-0.183997 -0.64648,-0.376205 -0.23855,-0.188977 -0.47433,-0.397387 -0.70693,-0.624768 l -3.08198,-3.012736 -0.89039,0.911056 3.51297,3.434415 c 0.6461,0.631614 1.28741,0.980705 1.92391,1.046965 0.63657,0.07265 1.24568,-0.188483 1.82676,-0.782898 0.33792,-0.345665 0.58568,-0.73824 0.74363,-1.177706 0.16117,-0.436308 0.26688,-0.989944 0.31677,-1.661397 0.39776,0.142446 0.80049,0.160081 1.2082,0.05323 0.40455,-0.103623 0.78668,-0.339688 1.1467,-0.707967 0.31265,-0.319821 0.54184,-0.686424 0.68729,-1.100191 0.14231,-0.410536 0.23439,-0.873204 0.27647,-1.388029 l 0.601,0.587561 0.89039,-0.911055 z m -9.56273,8.903849 c -0.35348,0.0079 -0.76754,0.06066 -1.2423,0.15813 -0.47664,0.103577 -0.96296,0.286148 -1.45831,0.54777 -0.87485,0.46206 -1.46042,1.021638 -1.757,1.678968 -0.30057,0.659439 -0.28922,1.294628 0.0336,1.905826 0.25741,0.487362 0.60566,0.804001 1.04542,0.949813 0.43764,0.141818 0.94973,0.134845 1.53634,-0.0217 0.19287,-0.05078 0.43177,-0.121119 0.71675,-0.210323 0.28098,-0.08709 0.53848,-0.161467 0.77153,-0.223242 0.42192,-0.110442 0.75366,-0.140086 0.99529,-0.08888 0.24562,0.04909 0.44094,0.211671 0.58652,0.487309 0.16457,0.311592 0.14605,0.619929 -0.0553,0.925525 -0.19923,0.309591 -0.50425,0.573334 -0.91571,0.79065 -0.39548,0.208876 -0.83804,0.348036 -1.32756,0.417545 -0.48742,0.0735 -0.93071,0.07997 -1.33016,0.02015 l -0.0599,0.03204 0.63614,1.204061 c 0.34549,-0.0037 0.7492,-0.06614 1.21129,-0.187585 0.46021,-0.115337 0.88985,-0.27839 1.28933,-0.489376 0.42744,-0.225755 0.78537,-0.486453 1.07384,-0.781865 0.28658,-0.289306 0.49247,-0.586545 0.61701,-0.892451 0.13043,-0.314121 0.18907,-0.623759 0.17622,-0.928626 -0.0169,-0.302757 -0.0983,-0.592009 -0.24391,-0.867647 -0.23209,-0.439424 -0.54992,-0.74649 -0.95395,-0.921391 -0.40592,-0.168796 -0.94382,-0.176058 -1.61334,-0.0217 -0.24126,0.0559 -0.50243,0.127363 -0.78341,0.214457 -0.28498,0.0892 -0.51679,0.157747 -0.69557,0.206189 -0.48207,0.131991 -0.8348,0.170369 -1.05833,0.114722 -0.22354,-0.05565 -0.4049,-0.215386 -0.54415,-0.479041 -0.18145,-0.34355 -0.17457,-0.669204 0.0207,-0.976684 0.19524,-0.307481 0.54076,-0.591556 1.03611,-0.853178 0.39947,-0.210986 0.85791,-0.353702 1.37563,-0.427881 0.51982,-0.07018 1.02807,-0.0654 1.52497,0.01447 l 0.0599,-0.03152 z" />
    <path
       style="fill:#878787;fill-opacity:0;stroke:#ff010d;stroke-width:1;stroke-dasharray:none"
       d="m 18.087698,107.80268 c 1.086619,0.31322 1.631766,-0.90516 2.532277,-1.08526 2.14556,-0.42912 7.541322,0 9.767357,0 3.658166,0 7.218817,0.0822 10.852618,0.36175 1.442755,0.11098 2.918817,-0.26667 4.341048,0 1.237377,0.23201 2.391532,0.79919 3.617539,1.08526 3.475242,0.81089 7.654608,1.19968 11.214373,2.17053 0.626488,0.17086 1.186788,0.53691 1.808771,0.7235 0.58893,0.17668 1.265359,0.0741 1.808768,0.36176 1.447017,0.96467 2.894034,1.92935 4.341048,2.89403 0.602924,0 1.244235,-0.2117 1.808771,0 0.479023,0.17963 0.675984,0.7783 1.08526,1.08526 0.910077,0.68256 2.089631,1.00437 2.894034,1.80877 0.665948,0.66595 1.108736,1.5405 1.808768,2.17053 0.522629,0.47036 1.253757,0.65358 1.808771,1.08526 1.457468,1.13358 2.346642,2.70839 3.617539,3.97929 0.30743,0.30743 0.77783,0.41608 1.08526,0.72351 0.307433,0.30743 0.416079,0.77783 0.723509,1.08526 2.162841,2.16284 6.300044,4.51171 9.043849,5.42631 5.149821,1.71661 0.465789,-0.59406 3.979294,0.72351 0.504936,0.18935 0.928494,0.57536 1.447017,0.7235 0.347834,0.0994 0.73053,-0.0709 1.08526,0 1.057878,0.21158 2.130361,0.56274 3.255781,0.72351 1.88813,0.26973 3.89006,-0.1898 5.78807,0 1.71794,0.1718 3.35812,0.82274 5.06455,1.08527 1.30719,0.2011 3.03247,0 4.34105,0 4.89439,0 9.96359,-0.4057 14.83191,0 2.46701,0.20558 5.15994,0.71035 7.59684,1.08526 1.85082,0.28474 3.58071,1.18335 5.42631,1.44701 3.86532,0.55219 -3.42118,-1.17908 3.25578,0.36176 4.20751,0.97096 1.03653,0.26991 3.97929,1.44701 0.22392,0.0896 0.49472,-0.0763 0.72351,0 0.7674,0.2558 1.41312,0.80124 2.17053,1.08526 3.54594,1.32973 5.1149,2.05604 8.32034,3.9793 1.5906,0.95436 3.40114,2.06232 5.06455,2.89403 1.92936,0.96468 0.27398,-0.42027 2.53228,1.08526 0.56757,0.37838 0.90131,1.03774 1.44702,1.44702 0.55573,0.4168 1.22965,0.69918 1.80877,1.08526 1.25222,0.83482 2.00356,2.42097 3.25578,3.25578 0.59967,0.39978 0.94019,0.57843 1.44702,1.08527"
       id="path4" />
    <path
       id="text4"
       style="font-size:8.46284px;fill:#878787;fill-opacity:1;stroke:#ff010d;stroke-width:0;stroke-dasharray:none"
       d="m 21.046261,100.23264 -4.969206,1.5813 0.220658,0.69298 2.094446,-0.66662 1.645378,5.17022 0.779797,-0.24804 -1.645378,-5.17023 2.094963,-0.66663 z m 17.563785,0.25735 -0.296106,6.42286 0.77618,0.0357 0.0708,-1.53944 0.525549,-0.45579 1.756482,2.10375 1.023711,0.0475 -2.18488,-2.58692 2.24069,-2.0314 -0.978235,-0.045 -2.348177,2.204 0.190169,-4.11964 z m -14.248742,1.31568 c -0.278227,-0.002 -0.561081,0.0201 -0.848011,0.0672 -0.286929,0.047 -0.506482,0.0902 -0.658357,0.13023 l -0.0067,0.78961 h 0.04134 c 0.26811,-0.0996 0.527621,-0.17415 0.778764,-0.22427 0.251167,-0.0529 0.478796,-0.0783 0.682645,-0.0765 0.168038,0.001 0.329106,0.0138 0.483175,0.0372 0.154069,0.0234 0.285697,0.0669 0.395325,0.13126 0.115113,0.0671 0.20242,0.1592 0.261999,0.27544 0.06234,0.11625 0.09303,0.26243 0.09147,0.43873 l -0.001,0.11989 c -0.451969,0.018 -0.875375,0.0473 -1.26969,0.0879 -0.394315,0.0406 -0.732329,0.1214 -1.014408,0.24288 -0.279324,0.1215 -0.49562,0.29066 -0.649056,0.50694 -0.150657,0.21355 -0.227897,0.49506 -0.230994,0.84491 -0.0038,0.42698 0.137974,0.77979 0.42478,1.05782 0.286807,0.27803 0.638237,0.41851 1.0542,0.4222 0.225887,0.002 0.42275,-0.0179 0.591178,-0.0605 0.168404,-0.0398 0.318002,-0.0913 0.448035,-0.15347 0.110627,-0.0486 0.224117,-0.11372 0.340547,-0.19534 0.119209,-0.0844 0.213388,-0.14963 0.28267,-0.19586 l -0.0047,0.49196 0.773079,0.007 0.02739,-3.13211 c 0.0026,-0.29751 -0.04058,-0.54689 -0.129707,-0.74879 -0.08913,-0.2019 -0.219799,-0.36732 -0.392224,-0.49557 -0.175156,-0.13104 -0.38385,-0.22354 -0.625802,-0.27802 -0.239173,-0.0572 -0.520886,-0.0876 -0.845943,-0.0904 z m 5.162992,0.16743 c -0.294677,-0.007 -0.563101,0.0244 -0.804602,0.0956 -0.238679,0.0685 -0.436342,0.16582 -0.593762,0.29145 -0.162996,0.12825 -0.286506,0.2753 -0.37052,0.44132 -0.08126,0.16609 -0.124498,0.34379 -0.129191,0.53381 -0.0075,0.30294 0.07024,0.56118 0.23306,0.77463 0.165647,0.21077 0.449444,0.37508 0.851628,0.49248 0.145009,0.0422 0.305669,0.082 0.481108,0.11937 0.178193,0.0375 0.32195,0.0696 0.431498,0.0971 0.295798,0.0734 0.494524,0.15855 0.596863,0.25477 0.102339,0.0962 0.15125,0.23527 0.146761,0.41703 -0.0059,0.23684 -0.106291,0.40775 -0.301791,0.51315 -0.195499,0.10539 -0.464141,0.15416 -0.805635,0.14572 -0.275399,-0.007 -0.561847,-0.0676 -0.859379,-0.18241 -0.297464,-0.11758 -0.566121,-0.27194 -0.806669,-0.46251 l -0.04134,-0.001 -0.0217,0.87178 c 0.190399,0.10115 0.426347,0.19666 0.707967,0.28629 0.284443,0.0869 0.597467,0.13471 0.938961,0.14314 0.603124,0.0149 1.081387,-0.10868 1.435055,-0.37 0.356422,-0.26126 0.539947,-0.60235 0.550354,-1.02371 0.0083,-0.33599 -0.08287,-0.60838 -0.273369,-0.81701 -0.190568,-0.20587 -0.46499,-0.35444 -0.823722,-0.44597 -0.117741,-0.0305 -0.265707,-0.0643 -0.4439,-0.1018 -0.17544,-0.0374 -0.334583,-0.0745 -0.476974,-0.1111 -0.257379,-0.067 -0.442751,-0.15035 -0.556038,-0.2496 -0.116041,-0.0993 -0.171608,-0.24406 -0.166915,-0.43408 0.0053,-0.21481 0.107222,-0.37336 0.305407,-0.47594 0.198254,-0.10533 0.439293,-0.15428 0.722954,-0.14728 0.272645,0.007 0.549296,0.0642 0.83044,0.17312 0.281212,0.10615 0.518969,0.23464 0.713652,0.3855 l 0.04134,0.001 0.02067,-0.82993 c -0.18489,-0.10101 -0.418187,-0.18838 -0.700215,-0.26148 -0.279207,-0.0758 -0.556592,-0.1167 -0.831991,-0.12351 z m 15.525667,0.30541 c -0.445871,0.0341 -0.830323,0.19873 -1.153418,0.49403 -0.427756,0.39129 -0.682427,0.96077 -0.763777,1.70842 -0.08135,0.74766 0.04519,1.35832 0.378788,1.83245 0.336331,0.47442 0.828883,0.7469 1.477946,0.81752 0.643586,0.07 1.180776,-0.0901 1.611271,-0.48111 0.430495,-0.39099 0.686045,-0.96025 0.767395,-1.70791 0.08135,-0.74765 -0.04607,-1.35905 -0.382405,-1.83347 -0.336034,-0.47717 -0.825575,-0.7506 -1.469161,-0.82063 -0.162266,-0.0176 -0.318015,-0.0207 -0.466639,-0.009 z m 7.111711,0.43822 -0.233577,1.30534 -0.516248,-0.092 -0.115238,0.64234 0.516764,0.0925 -0.432015,2.41639 c -0.0984,0.5505 -0.04896,0.97189 0.147794,1.26452 0.196759,0.29263 0.526912,0.48038 0.990638,0.56327 0.13288,0.0238 0.285356,0.0383 0.457853,0.0439 0.175209,0.006 0.338345,0.003 0.488859,-0.009 l 0.12299,-0.68781 -0.04083,-0.007 c -0.06402,0.0137 -0.167163,0.0276 -0.309541,0.0413 -0.141894,0.011 -0.275231,0.005 -0.399976,-0.0171 -0.214236,-0.0383 -0.370118,-0.0909 -0.467155,-0.15864 -0.09384,-0.07 -0.16075,-0.16457 -0.201021,-0.28371 -0.04424,-0.12824 -0.05993,-0.25998 -0.04703,-0.3948 0.01339,-0.13753 0.04158,-0.32567 0.08423,-0.56431 l 0.370003,-2.07016 1.578198,0.28164 0.114722,-0.64234 -1.578198,-0.28215 0.233577,-1.30587 z m -6.717419,0.23668 c 0.413538,0.045 0.720707,0.2249 0.921907,0.54053 0.201498,0.31289 0.269818,0.76687 0.205156,1.36116 -0.06317,0.5806 -0.228387,1.00574 -0.496094,1.27589 -0.264671,0.26771 -0.602575,0.37956 -1.013375,0.33486 -0.416277,-0.0453 -0.724921,-0.22873 -0.925525,-0.54983 -0.200306,-0.32385 -0.268766,-0.77312 -0.206189,-1.34824 0.06466,-0.59429 0.227523,-1.02267 0.488859,-1.2852 0.264373,-0.26497 0.606245,-0.37477 1.025261,-0.32917 z m -19.868038,1.16892 -0.01137,1.28519 c -0.194148,0.14705 -0.404648,0.27335 -0.631486,0.37879 -0.226814,0.10268 -0.476591,0.15279 -0.749308,0.15038 -0.327812,-0.003 -0.571069,-0.071 -0.729672,-0.20464 -0.158578,-0.1364 -0.236952,-0.33706 -0.234611,-0.60152 0.0021,-0.23415 0.07297,-0.41676 0.211874,-0.54777 0.138931,-0.13376 0.319943,-0.2311 0.543636,-0.29248 0.187784,-0.0507 0.441919,-0.0885 0.76171,-0.11318 0.322547,-0.0247 0.602198,-0.0431 0.839226,-0.0548 z m 29.611629,0.43305 -0.537952,2.9471 c -0.102861,0.5637 -0.04837,1.01639 0.163814,1.35754 0.212674,0.33844 0.557589,0.55117 1.034563,0.63821 0.284558,0.0519 0.554728,0.0452 0.810286,-0.0202 0.255558,-0.0654 0.530726,-0.17652 0.825273,-0.33279 l -0.09198,0.50436 0.764294,0.13901 0.828373,-4.54029 -0.764294,-0.13953 -0.618567,3.38997 c -0.232433,0.12281 -0.476136,0.21445 -0.730705,0.27441 -0.251858,0.0604 -0.476541,0.0728 -0.674377,0.0367 -0.222227,-0.0406 -0.386867,-0.0987 -0.49351,-0.17415 -0.106643,-0.0755 -0.185265,-0.17953 -0.236678,-0.31213 -0.0492,-0.12939 -0.07,-0.27734 -0.06201,-0.4439 0.0085,-0.16927 0.03393,-0.36909 0.07596,-0.59945 l 0.471806,-2.58537 z m -22.379513,0.99735 -0.753959,2.69699 0.603581,0.008 1.199927,-2.69131 z m 31.64303,1.02991 -2.622579,5.74849 0.706934,0.32246 0.802535,-1.75958 c 0.137223,0.18372 0.282949,0.33949 0.436666,0.46715 0.156223,0.12881 0.343156,0.24262 0.561206,0.3421 0.250631,0.11434 0.510481,0.17264 0.77928,0.17415 0.27245,1.5e-4 0.5339,-0.0549 0.783932,-0.16485 0.267137,-0.11431 0.513161,-0.28943 0.738973,-0.52555 0.226955,-0.23862 0.418617,-0.52834 0.574125,-0.8692 0.309872,-0.67921 0.409651,-1.27421 0.30024,-1.78438 -0.105761,-0.51153 -0.411498,-0.88266 -0.917773,-1.11363 -0.26567,-0.1212 -0.541028,-0.18167 -0.82579,-0.18138 -0.281112,-0.001 -0.551826,0.0343 -0.811837,0.10645 l 0.201022,-0.43977 z m 0.983403,1.28003 c 0.245538,0.006 0.469815,0.0552 0.672827,0.14779 0.358403,0.16351 0.566693,0.40996 0.625285,0.73949 0.05859,0.32953 -0.02741,0.7474 -0.258383,1.25367 -0.237835,0.52132 -0.527953,0.86435 -0.869714,1.0294 -0.34176,0.16504 -0.709283,0.15781 -1.102775,-0.0217 -0.182961,-0.0835 -0.339754,-0.17446 -0.470256,-0.27337 -0.127995,-0.0977 -0.271639,-0.23739 -0.430981,-0.41909 l 1.085722,-2.3797 c 0.25315,-0.0571 0.502736,-0.0825 0.748275,-0.0765 z m 3.466971,1.4273 -1.264522,2.7156 c -0.241882,0.51944 -0.303632,0.97127 -0.184485,1.35495 0.120311,0.38118 0.400209,0.67383 0.839742,0.8785 0.262222,0.12211 0.525314,0.18373 0.789099,0.185 0.263786,0.001 0.558169,-0.0363 0.882634,-0.11317 l -0.216524,0.46457 0.704349,0.32815 1.948202,-4.18424 -0.703833,-0.32815 -1.455208,3.12436 c -0.255912,0.0601 -0.514204,0.0869 -0.775664,0.0806 -0.258962,-0.005 -0.479668,-0.05 -0.661975,-0.13487 -0.204782,-0.0954 -0.349437,-0.19305 -0.433565,-0.29301 -0.08413,-0.0999 -0.134117,-0.22045 -0.150378,-0.36173 -0.01493,-0.13762 0.0024,-0.28631 0.05219,-0.44545 0.05096,-0.16164 0.125946,-0.34842 0.224792,-0.56069 l 1.109493,-2.3828 z m 6.855913,1.03198 -3.978569,5.05085 0.571542,0.44959 0.171565,-0.13798 c 0.08454,0.19986 0.185129,0.3843 0.301274,0.55294 0.11444,0.17081 0.274489,0.33725 0.480074,0.49919 0.220733,0.17388 0.45599,0.2909 0.706417,0.3514 0.252132,0.0583 0.522485,0.0623 0.810803,0.0124 0.274548,-0.0503 0.549433,-0.16311 0.824756,-0.339 0.277487,-0.17419 0.535456,-0.41275 0.774113,-0.71572 0.472198,-0.59944 0.71374,-1.16174 0.723987,-1.68672 0.01241,-0.52327 -0.19577,-0.95335 -0.624252,-1.29088 -0.240209,-0.18922 -0.492345,-0.31434 -0.756543,-0.37517 -0.262492,-0.063 -0.534723,-0.0918 -0.816487,-0.0858 l 1.421618,-1.80454 z m -1.21543,2.79828 c 0.251274,0.002 0.498045,0.0359 0.73949,0.10335 0.243149,0.0653 0.453,0.16769 0.630452,0.30747 0.318116,0.25059 0.460274,0.54507 0.425814,0.88264 -0.03275,0.3354 -0.219752,0.71906 -0.560689,1.15187 -0.373327,0.47392 -0.743894,0.74685 -1.112077,0.81803 -0.364315,0.0707 -0.715574,-0.0271 -1.053166,-0.293 -0.157975,-0.12444 -0.287474,-0.25117 -0.389123,-0.38034 -0.09949,-0.12746 -0.205022,-0.29835 -0.316777,-0.51263 z m 5.316988,1.10484 -4.303096,4.77749 0.577225,0.52038 4.303097,-4.77801 z m 1.247986,1.00252 -0.475423,0.65061 0.70745,0.51676 0.475423,-0.6506 z m -0.890902,1.3038 -2.722831,3.72742 0.627352,0.45785 2.722831,-3.7269 z m 2.191598,2.86546 c -0.595509,-0.0285 -1.17768,0.20569 -1.746147,0.70228 -0.30498,0.26642 -0.535192,0.54034 -0.690914,0.82269 -0.155721,0.28235 -0.241824,0.56451 -0.258899,0.84646 -0.01889,0.27987 0.02548,0.5572 0.133842,0.83199 0.110436,0.27298 0.275246,0.53496 0.494544,0.786 0.172176,0.19709 0.360716,0.36041 0.564823,0.48937 0.20592,0.13104 0.440625,0.25344 0.70435,0.36691 l 0.643888,-0.56276 -0.02687,-0.0315 c -0.07333,-0.0128 -0.167632,-0.0344 -0.282671,-0.0656 -0.112963,-0.033 -0.228356,-0.0729 -0.346232,-0.11989 -0.134974,-0.054 -0.271226,-0.12906 -0.409277,-0.22428 -0.138051,-0.0952 -0.258946,-0.20162 -0.362252,-0.31987 -0.29723,-0.34025 -0.416225,-0.70274 -0.357084,-1.08728 0.06303,-0.38427 0.303865,-0.75941 0.722953,-1.12551 0.431537,-0.37697 0.841685,-0.56694 1.230416,-0.56999 0.392619,-0.003 0.734247,0.16156 1.024227,0.49351 0.157677,0.1805 0.281316,0.39811 0.371554,0.65216 0.09205,0.25611 0.146437,0.53368 0.163297,0.83354 l 0.02739,0.0315 0.650606,-0.56844 c -0.05864,-0.23044 -0.144298,-0.4666 -0.256832,-0.70849 -0.110722,-0.2398 -0.253376,-0.45918 -0.427364,-0.65835 -0.447657,-0.51245 -0.970025,-0.78387 -1.567346,-0.81442 z m 4.008541,1.45934 -0.429948,0.46922 2.25981,2.07274 0.429948,-0.46922 z m -1.450558,1.48415 c -0.602296,0.0494 -1.158928,0.3522 -1.669149,0.90847 -0.515807,0.56235 -0.755895,1.14238 -0.720369,1.73943 0.03739,0.59501 0.3384,1.15096 0.902787,1.66863 0.221289,0.20297 0.457737,0.36966 0.709001,0.49919 0.251264,0.12954 0.510379,0.24176 0.77773,0.33745 l 0.572575,-0.62425 -0.03049,-0.0279 c -0.181412,-0.002 -0.432802,-0.0639 -0.753959,-0.18655 -0.317265,-0.12278 -0.59125,-0.29053 -0.822689,-0.50281 -0.174595,-0.16014 -0.312964,-0.33138 -0.414445,-0.51418 -0.09945,-0.18094 -0.156929,-0.36848 -0.173116,-0.56276 -0.01838,-0.20003 0.01133,-0.40603 0.08992,-0.61805 0.08045,-0.21405 0.216962,-0.42599 0.408761,-0.6351 l 2.506307,2.29908 0.284737,-0.31057 c 0.452495,-0.49333 0.676738,-0.98868 0.672827,-1.4857 -0.0019,-0.49516 -0.232096,-0.95324 -0.690914,-1.37408 -0.495361,-0.45435 -1.045185,-0.65783 -1.649512,-0.61029 z m 0.203605,0.65215 c 0.348444,-0.0131 0.675814,0.12087 0.982369,0.40205 0.304526,0.27931 0.455315,0.56933 0.452686,0.86971 -5.99e-4,0.30224 -0.137264,0.60459 -0.410828,0.90692 l -1.949235,-1.78749 c 0.270162,-0.24563 0.578595,-0.37623 0.925008,-0.39119 z m 6.092135,1.45728 -0.377755,0.71158 0.77308,0.41135 0.378271,-0.71159 z m -0.697115,1.41748 -2.165759,4.07572 0.685746,0.36432 2.166276,-4.07572 z m 6.189803,0.49196 -0.357084,1.27744 -0.505396,-0.14107 -0.176216,0.62838 0.505395,0.1416 -0.660941,2.36368 c -0.1506,0.53857 -0.142032,0.9632 0.02584,1.2733 0.16787,0.31011 0.47857,0.5284 0.932243,0.65526 0.129999,0.0364 0.281002,0.0657 0.452168,0.0879 0.17382,0.0229 0.335794,0.035 0.486792,0.0372 l 0.188103,-0.67231 -0.03979,-0.0114 c -0.06504,0.008 -0.169087,0.0118 -0.312126,0.0119 -0.142297,-0.003 -0.274318,-0.0212 -0.396358,-0.0553 -0.209592,-0.0586 -0.35947,-0.1264 -0.449585,-0.20309 -0.08672,-0.0786 -0.144424,-0.17883 -0.173116,-0.30127 -0.03177,-0.13189 -0.03453,-0.26443 -0.0088,-0.39739 0.02648,-0.13562 0.07218,-0.31999 0.137459,-0.55346 l 0.566374,-2.02571 1.544092,0.43149 0.1757,-0.62838 -1.544092,-0.43202 0.357601,-1.27744 z m -4.875155,0.33642 -1.447973,4.38267 0.737422,0.2434 1.081588,-3.27215 c 0.25241,-0.0878 0.504493,-0.14478 0.75706,-0.17157 0.252566,-0.0268 0.479687,-0.007 0.681095,0.0594 0.196177,0.0648 0.346868,0.14525 0.451652,0.24081 0.105649,0.0929 0.172969,0.20495 0.202055,0.33642 0.02993,0.12014 0.02697,0.27324 -0.0083,0.45888 -0.03438,0.18303 -0.08485,0.3753 -0.151412,0.57671 l -0.824239,2.49546 0.737423,0.24339 0.939994,-2.84427 c 0.177209,-0.53621 0.18889,-0.98824 0.03462,-1.35547 -0.154267,-0.36723 -0.468105,-0.62902 -0.941545,-0.78548 -0.258953,-0.0856 -0.529486,-0.11539 -0.810803,-0.0894 -0.281316,0.026 -0.568162,0.0965 -0.861446,0.21135 l 0.160714,-0.48627 z m 31.700394,1.95802 -3.06493,0.076 0.016,0.63614 3.06493,-0.076 z m -23.12986,0.0687 c -0.463054,0.007 -0.875038,0.14884 -1.235581,0.42581 -0.478007,0.36974 -0.779312,0.92673 -0.903821,1.67122 -0.125872,0.75263 -0.01108,1.36936 0.344165,1.85053 0.355705,0.47845 0.911214,0.78111 1.666567,0.90744 0.29616,0.0495 0.58483,0.0599 0.8661,0.0315 0.28126,-0.0284 0.55982,-0.0751 0.83612,-0.14056 l 0.14004,-0.83561 -0.0408,-0.007 c -0.15313,0.0973 -0.39772,0.18198 -0.73381,0.25425 -0.33291,0.07 -0.65453,0.0792 -0.96428,0.0274 -0.23367,-0.0391 -0.442626,-0.10774 -0.627351,-0.20567 -0.182007,-0.0975 -0.332692,-0.22319 -0.452169,-0.37724 -0.124456,-0.15768 -0.211788,-0.34682 -0.261482,-0.56741 -0.04924,-0.2233 -0.05042,-0.47461 -0.0036,-0.75447 l 3.35432,0.56069 0.0698,-0.41548 c 0.11042,-0.66026 0.0282,-1.19776 -0.24598,-1.61231 -0.2715,-0.41409 -0.71402,-0.67245 -1.32808,-0.77514 -0.16575,-0.0277 -0.32573,-0.0405 -0.48008,-0.0382 z m 31.88281,0.0186 -0.0713,0.80253 0.8723,0.078 0.0718,-0.80254 z m 2.78588,0.0615 -0.95188,6.35879 0.76843,0.11524 0.22789,-1.52446 0.56999,-0.39946 1.53117,2.27273 1.01389,0.15142 -1.90892,-2.79673 2.43706,-1.79111 -0.96842,-0.14521 -2.5616,1.95234 0.61082,-4.07831 z m -6.41718,0.0171 -0.0429,1.3255 -0.52452,-0.0171 -0.0207,0.65268 0.52452,0.017 -0.0791,2.45308 c -0.018,0.55894 0.0913,0.96921 0.32815,1.23042 0.23689,0.2612 0.5906,0.39928 1.06143,0.41444 0.13492,0.004 0.28841,-0.003 0.45992,-0.0222 0.17426,-0.0192 0.33497,-0.0457 0.48214,-0.0796 l 0.0222,-0.69815 -0.0413,-0.001 c -0.0614,0.0228 -0.16133,0.0512 -0.30024,0.0853 -0.13882,0.0314 -0.27177,0.0449 -0.39842,0.0408 -0.21752,-0.007 -0.37894,-0.0369 -0.48473,-0.0899 -0.10294,-0.0557 -0.18275,-0.13958 -0.23978,-0.25166 -0.0623,-0.12053 -0.0967,-0.24869 -0.10335,-0.38396 -0.007,-0.13802 -0.006,-0.32821 0.002,-0.57051 l 0.0677,-2.10219 1.60248,0.0517 0.0212,-0.65267 -1.60249,-0.0512 0.0424,-1.32602 z m -10.89339,0.17156 -0.7767,0.0114 0.0196,1.32602 -0.52452,0.008 0.009,0.65319 0.52504,-0.008 0.0362,2.45411 c 0.008,0.55917 0.13662,0.96356 0.3855,1.21337 0.24889,0.2498 0.60902,0.37126 1.08004,0.36431 0.13497,-0.002 0.28744,-0.0166 0.45786,-0.0439 0.17317,-0.0273 0.33258,-0.0611 0.478,-0.1018 l -0.0103,-0.69867 -0.0413,0.001 c -0.0602,0.0257 -0.15895,0.0586 -0.29611,0.0992 -0.1372,0.0378 -0.26913,0.0576 -0.39584,0.0594 -0.21761,0.003 -0.3807,-0.0192 -0.48886,-0.0672 -0.10544,-0.0508 -0.18892,-0.13101 -0.25115,-0.24029 -0.0678,-0.11747 -0.10843,-0.24347 -0.12144,-0.37827 -0.0131,-0.13757 -0.0212,-0.3276 -0.0248,-0.57 l -0.031,-2.10271 1.603,-0.0238 -0.01,-0.65267 -1.60301,0.0233 z m -10.27483,0.14366 -0.69091,4.56407 0.76791,0.11627 0.51625,-3.40755 c 0.23406,-0.12894 0.47331,-0.22776 0.71778,-0.29662 0.24447,-0.0689 0.47137,-0.0876 0.6811,-0.0558 0.20428,0.0309 0.36588,0.0846 0.48524,0.16123 0.11977,0.0739 0.20554,0.17346 0.25631,0.29817 0.0497,0.11341 0.0728,0.26428 0.0692,0.45321 -0.003,0.1862 -0.0209,0.38403 -0.0527,0.59376 l -0.39326,2.59881 0.76792,0.11627 0.44855,-2.96209 c 0.0846,-0.55838 0.02,-1.00545 -0.19379,-1.34152 -0.2138,-0.33608 -0.5674,-0.54185 -1.0604,-0.6165 -0.26965,-0.0408 -0.54096,-0.0248 -0.8139,0.0481 -0.27295,0.0729 -0.54411,0.19093 -0.81391,0.35347 l 0.0765,-0.50694 z m -2.10271,0.13488 c -0.24512,0.006 -0.4849,0.0635 -0.71934,0.17363 -0.23175,0.1073 -0.49875,0.28866 -0.8015,0.54364 l -0.0155,-0.68161 -0.7767,0.0176 0.10594,4.6147 0.77669,-0.0181 -0.0754,-3.27576 c 0.20268,-0.17276 0.41443,-0.31395 0.6351,-0.42375 0.22061,-0.11255 0.45079,-0.17173 0.6904,-0.17725 0.14872,-0.003 0.27674,5.9e-4 0.38447,0.0119 0.11042,0.008 0.22372,0.0252 0.34003,0.0501 l 0.0413,-0.001 -0.0181,-0.79737 c -0.12162,-0.0165 -0.21265,-0.0269 -0.27336,-0.031 -0.0608,-0.007 -0.15909,-0.009 -0.29404,-0.006 z m -5.21571,0.11369 c 0.17382,-0.0331 0.36331,-0.0322 0.56845,0.002 0.40756,0.0682 0.69215,0.22889 0.85369,0.48215 0.16426,0.25371 0.2144,0.58185 0.14986,0.98443 l -2.608624,-0.43615 c 0.09259,-0.3532 0.279975,-0.63061 0.562239,-0.83199 0.142491,-0.10046 0.300575,-0.16743 0.474385,-0.2005 z m 21.68189,0.73794 c -0.27816,0.007 -0.55973,0.0389 -0.84491,0.0956 -0.28519,0.0567 -0.50275,0.10737 -0.65319,0.15244 l 0.0196,0.7891 0.0413,-0.001 c 0.26461,-0.10854 0.52119,-0.19208 0.7705,-0.25063 0.24924,-0.0613 0.47575,-0.0947 0.67954,-0.0997 0.168,-0.004 0.32944,0.003 0.48421,0.0212 0.15477,0.0182 0.28825,0.0577 0.39998,0.11834 0.11731,0.0632 0.20784,0.15197 0.2713,0.26613 0.0662,0.1141 0.10156,0.25938 0.10594,0.43564 l 0.003,0.11937 c -0.4511,0.0332 -0.87283,0.0769 -1.26556,0.13074 -0.39272,0.0538 -0.72779,0.14659 -1.00562,0.2775 -0.27507,0.13084 -0.48594,0.30681 -0.632,0.52813 -0.14338,0.21851 -0.21075,0.50239 -0.20206,0.85215 0.0106,0.42687 0.16391,0.77462 0.45992,1.04283 0.29602,0.26821 0.6523,0.39687 1.06816,0.38654 0.22582,-0.006 0.42169,-0.0324 0.58859,-0.0806 0.16697,-0.0455 0.31449,-0.10139 0.44235,-0.16794 0.10893,-0.0523 0.22022,-0.12122 0.33383,-0.20671 0.1163,-0.0883 0.20827,-0.15663 0.27595,-0.20516 l 0.0124,0.49145 0.77257,-0.0191 -0.078,-3.13159 c -0.007,-0.29743 -0.0592,-0.54536 -0.15503,-0.74415 -0.0959,-0.19878 -0.23212,-0.35925 -0.40876,-0.48162 -0.17948,-0.12506 -0.39094,-0.21105 -0.63459,-0.25735 -0.24097,-0.0491 -0.52408,-0.0696 -0.84904,-0.0615 z m -7.59489,0.17311 c -0.67062,-0.0457 -1.22725,0.13852 -1.66967,0.55294 -0.43966,0.41461 -0.68509,0.99875 -0.73638,1.75183 -0.0519,0.76132 0.12247,1.36394 0.52296,1.80816 0.40068,0.44148 0.98311,0.68848 1.74718,0.74052 0.29958,0.0204 0.58791,0.002 0.86506,-0.0532 0.27716,-0.0557 0.54997,-0.12954 0.81856,-0.2217 l 0.0574,-0.84491 -0.0408,-0.003 c -0.14292,0.11176 -0.37847,0.22034 -0.7059,0.32505 -0.3245,0.10215 -0.64321,0.14227 -0.95653,0.12092 -0.23637,-0.0161 -0.45153,-0.0637 -0.64493,-0.14314 -0.19064,-0.0793 -0.35286,-0.18959 -0.48679,-0.33125 -0.13924,-0.14478 -0.24425,-0.32481 -0.31523,-0.5395 -0.0708,-0.21743 -0.0963,-0.46777 -0.077,-0.75086 l 3.39255,0.231 0.0289,-0.42013 c 0.0455,-0.66788 -0.0887,-1.19496 -0.40204,-1.58079 -0.3106,-0.38563 -0.77618,-0.59951 -1.39733,-0.64182 z m 17.93999,0.0233 -0.40979,4.59765 0.77359,0.0687 0.41031,-4.59714 z m -18.02474,0.61288 c 0.41227,0.0281 0.71111,0.16058 0.89659,0.39687 0.18822,0.23648 0.2699,0.55784 0.24494,0.9648 l -2.6386,-0.17983 c 0.0577,-0.36055 0.21725,-0.65468 0.47853,-0.88263 0.26402,-0.22777 0.60352,-0.32748 1.01854,-0.29921 z m 26.70328,0.62218 c -0.24771,0.0173 -0.46168,0.0712 -0.64182,0.16123 -0.18614,0.0915 -0.33748,0.20963 -0.45424,0.3545 -0.11408,0.14552 -0.19353,0.3107 -0.23771,0.49558 -0.0704,0.29473 -0.0481,0.56346 0.0667,0.80615 0.1181,0.24066 0.3613,0.46026 0.73019,0.65888 0.13305,0.0714 0.28166,0.14391 0.44545,0.21704 0.16648,0.0738 0.30063,0.13527 0.40205,0.185 0.274,0.13346 0.45067,0.25819 0.53071,0.37362 0.08,0.11543 0.0991,0.26138 0.0568,0.43822 -0.0551,0.23042 -0.18939,0.37689 -0.40256,0.43925 -0.21317,0.0623 -0.4858,0.0536 -0.81804,-0.0258 -0.26794,-0.064 -0.53546,-0.1828 -0.80254,-0.35708 -0.26644,-0.17697 -0.49741,-0.38413 -0.69298,-0.62064 l -0.0403,-0.009 -0.20258,0.84801 c 0.16515,0.1386 0.37627,0.28103 0.63304,0.42736 0.26009,0.1443 0.55608,0.25599 0.88832,0.33538 0.58678,0.14023 1.08069,0.11938 1.48105,-0.0625 0.40303,-0.18126 0.6534,-0.47683 0.75137,-0.88677 0.0781,-0.32689 0.0457,-0.61203 -0.0971,-0.85576 -0.14349,-0.24106 -0.38135,-0.44397 -0.71314,-0.60824 -0.10881,-0.0543 -0.24641,-0.11794 -0.41289,-0.19172 -0.1638,-0.0731 -0.31122,-0.1428 -0.44287,-0.20825 -0.23777,-0.11914 -0.40183,-0.239 -0.49196,-0.35967 -0.0928,-0.12131 -0.11704,-0.27453 -0.0729,-0.4594 0.0499,-0.20899 0.1827,-0.34301 0.39791,-0.40205 0.21585,-0.0617 0.46144,-0.0592 0.73742,0.007 0.26526,0.0634 0.5239,0.17753 0.77618,0.34262 0.25293,0.16241 0.45907,0.33744 0.61805,0.52555 l 0.0403,0.01 0.19275,-0.80771 c -0.15979,-0.13732 -0.36984,-0.27127 -0.63045,-0.40152 -0.25729,-0.1323 -0.51961,-0.23053 -0.78755,-0.29456 -0.28669,-0.0685 -0.55563,-0.0932 -0.80667,-0.0739 z m -17.7307,0.84285 0.0315,1.28519 c -0.18908,0.1535 -0.39489,0.28644 -0.61805,0.39946 -0.22322,0.11026 -0.47149,0.16892 -0.74414,0.1757 -0.32772,0.008 -0.57285,-0.0521 -0.73587,-0.18035 -0.16308,-0.13098 -0.2482,-0.32835 -0.25477,-0.59273 -0.006,-0.23409 0.0589,-0.41888 0.19327,-0.55449 0.13435,-0.13837 0.31232,-0.24221 0.53382,-0.31109 0.18597,-0.057 0.43828,-0.10302 0.75706,-0.13849 0.32153,-0.0356 0.60066,-0.0635 0.83716,-0.0832 z m 21.16925,0.16019 -0.009,4.61574 0.77669,0.002 0.006,-3.2768 c 0.20693,-0.16765 0.4221,-0.30347 0.64544,-0.40773 0.22335,-0.10701 0.45486,-0.16065 0.69453,-0.16019 0.14876,2.8e-4 0.27706,0.008 0.38448,0.0217 0.11017,0.0112 0.22283,0.0306 0.33848,0.0584 h 0.0413 l 0.002,-0.79736 c -0.12118,-0.0195 -0.21174,-0.0321 -0.27234,-0.0377 -0.0606,-0.008 -0.15853,-0.0127 -0.29352,-0.0129 -0.24518,-4.6e-4 -0.48636,0.0513 -0.72347,0.15555 -0.23435,0.10149 -0.50593,0.27613 -0.81494,0.52348 l 0.001,-0.68213 z m 5.96915,0.99167 c -0.29232,0.0218 -0.5712,0.1065 -0.83613,0.25374 -0.52725,0.29531 -0.90719,0.80177 -1.13998,1.5198 -0.23534,0.72589 -0.21282,1.3533 0.0677,1.88154 0.28137,0.52562 0.78613,0.90638 1.51464,1.14256 0.28564,0.0926 0.56977,0.1453 0.85215,0.15865 0.28237,0.0134 0.56507,0.008 0.84801,-0.016 l 0.26148,-0.80563 -0.0393,-0.0129 c -0.16579,0.0737 -0.42071,0.12166 -0.76377,0.14366 -0.3396,0.0202 -0.65831,-0.0184 -0.95705,-0.11524 -0.22537,-0.0731 -0.42237,-0.17153 -0.59066,-0.29559 -0.16567,-0.12322 -0.29622,-0.2698 -0.39171,-0.43977 -0.0999,-0.17428 -0.158,-0.37395 -0.17467,-0.59944 -0.0158,-0.22812 0.02,-0.47733 0.10749,-0.74725 l 3.23495,1.04904 0.1297,-0.40101 c 0.20645,-0.6368 0.20502,-1.1805 -0.005,-1.63091 -0.20757,-0.44956 -0.60769,-0.77021 -1.19993,-0.96222 -0.31971,-0.10365 -0.62545,-0.14478 -0.91777,-0.12299 z m 0.11885,0.63407 c 0.17679,-0.007 0.36439,0.0211 0.56224,0.0853 0.39308,0.12744 0.6506,0.32826 0.77308,0.60255 0.1251,0.27513 0.12622,0.60711 0.003,0.9958 l -2.51561,-0.81545 c 0.14359,-0.33572 0.36967,-0.58239 0.67851,-0.74001 0.15573,-0.0784 0.32189,-0.12104 0.49868,-0.12816 z m 7.20163,0.13695 -0.71107,1.86965 c -0.15489,-0.1739 -0.31126,-0.3175 -0.4687,-0.43047 -0.15647,-0.11554 -0.34807,-0.2166 -0.57465,-0.30282 -0.24974,-0.095 -0.51147,-0.13527 -0.78496,-0.12144 -0.27092,0.0148 -0.53077,0.0864 -0.78032,0.21549 -0.25407,0.13323 -0.48848,0.32282 -0.7028,0.56844 -0.21174,0.24661 -0.38745,0.55268 -0.52658,0.91829 -0.26747,0.7029 -0.32554,1.30994 -0.17518,1.82108 0.15293,0.51212 0.48654,0.866 1.00149,1.06195 0.26519,0.10092 0.53051,0.14442 0.7953,0.13023 0.26478,-0.0142 0.53573,-0.0717 0.81287,-0.1726 l -0.17208,0.45165 0.72605,0.27647 2.28668,-6.00945 z m -2.46652,1.74769 c 0.18529,-0.0105 0.37951,0.0229 0.58291,0.10026 0.18281,0.0696 0.34505,0.1501 0.48679,0.24236 0.14175,0.0923 0.29394,0.21937 0.45631,0.38137 l -0.94206,2.47582 c -0.23767,0.0746 -0.47966,0.11839 -0.72606,0.13074 -0.24542,0.01 -0.47098,-0.025 -0.67696,-0.10335 -0.38621,-0.14697 -0.61675,-0.38597 -0.69091,-0.71779 -0.0732,-0.33439 -0.012,-0.75784 0.18293,-1.27021 0.19791,-0.52009 0.46405,-0.8789 0.7984,-1.0759 0.16718,-0.0985 0.34336,-0.15275 0.52865,-0.1633 z m 3.91811,0.81494 -0.2682,0.59066 2.39727,1.08727 -3.85093,1.97869 -0.23719,0.52297 3.39462,1.53944 0.2713,-0.59841 -2.52491,-1.14515 3.86747,-1.98489 0.22841,-0.50437 z m 5.78673,1.13223 -0.3204,0.54984 2.65049,1.54202 0.31987,-0.55035 z m -0.66508,1.67638 c -0.1451,0.0118 -0.29058,0.0393 -0.43563,0.0832 -0.57783,0.17696 -1.05651,0.59193 -1.43609,1.24437 -0.38373,0.65959 -0.49456,1.27694 -0.33228,1.8526 0.16367,0.57329 0.57672,1.05252 1.23868,1.43764 0.25955,0.151 0.52578,0.26304 0.79892,0.3359 0.27314,0.0728 0.55089,0.12745 0.83251,0.16381 l 0.42581,-0.73225 -0.0357,-0.0207 c -0.17763,0.0369 -0.43676,0.0295 -0.7767,-0.0217 -0.33617,-0.0522 -0.6396,-0.15678 -0.91106,-0.31471 -0.20478,-0.11913 -0.3765,-0.25755 -0.51469,-0.41444 -0.13582,-0.15551 -0.23258,-0.3263 -0.28991,-0.51263 -0.0607,-0.19149 -0.0749,-0.39931 -0.0434,-0.62322 0.0329,-0.2263 0.12035,-0.46167 0.26304,-0.70693 l 2.93987,1.70997 0.21187,-0.36432 c 0.33664,-0.57862 0.44954,-1.11054 0.33952,-1.59525 -0.10764,-0.48332 -0.43027,-0.88116 -0.96842,-1.19424 -0.43575,-0.25352 -0.87107,-0.3625 -1.30638,-0.32712 z m 0.41755,0.65733 c 0.17429,0.0305 0.35145,0.098 0.53123,0.20257 0.35718,0.2078 0.56625,0.45841 0.62787,0.75241 0.064,0.29539 -0.005,0.6203 -0.20774,0.9741 l -2.28617,-1.33015 c 0.21144,-0.29769 0.48489,-0.49066 0.82011,-0.57929 0.1688,-0.0436 0.34041,-0.0501 0.5147,-0.0196 z m 4.12326,0.21756 -0.65319,1.15445 -0.45682,-0.25838 -0.32143,0.56844 0.45682,0.25838 -1.20871,2.1363 c -0.27538,0.48673 -0.36868,0.90047 -0.28009,1.24179 0.0886,0.34132 0.33776,0.62793 0.74776,0.85989 0.11749,0.0665 0.25668,0.13126 0.41755,0.19379 0.16326,0.0639 0.31798,0.11463 0.46405,0.15296 l 0.34417,-0.60771 -0.0362,-0.0202 c -0.065,-0.008 -0.16705,-0.0298 -0.30592,-0.0641 -0.13752,-0.0366 -0.26126,-0.0859 -0.37156,-0.14831 -0.18941,-0.10716 -0.31848,-0.20882 -0.38757,-0.30489 -0.0653,-0.0971 -0.0976,-0.20859 -0.0961,-0.33434 7.9e-4,-0.13566 0.0299,-0.26466 0.0868,-0.38758 0.0582,-0.12531 0.14676,-0.29388 0.26613,-0.50488 l 1.03612,-1.83038 1.39526,0.78962 0.32143,-0.56844 -1.39527,-0.78962 0.65319,-1.15445 z m 2.29443,2.73885 c -0.20356,0.0397 -0.38069,0.11388 -0.53123,0.22324 -0.14812,0.11067 -0.26771,0.24959 -0.35864,0.41651 -0.14495,0.26611 -0.19366,0.53157 -0.14624,0.79582 0.0512,0.26314 0.22907,0.53876 0.5333,0.82682 0.10977,0.10371 0.23409,0.21219 0.3731,0.32556 0.14144,0.11469 0.25461,0.20922 0.33952,0.28371 0.22964,0.20038 0.36784,0.36686 0.41496,0.49919 0.0471,0.13233 0.027,0.27803 -0.0599,0.4377 -0.11333,0.20805 -0.28076,0.31432 -0.50282,0.31884 -0.22205,0.005 -0.48291,-0.0748 -0.78289,-0.23822 -0.24192,-0.13178 -0.46932,-0.3165 -0.68162,-0.55449 -0.21098,-0.24041 -0.37993,-0.50043 -0.50694,-0.7798 l -0.0362,-0.0196 -0.41702,0.76533 c 0.12322,0.17692 0.28955,0.36995 0.49919,0.57826 0.21338,0.20721 0.47,0.39212 0.76998,0.55552 0.5298,0.2886 1.01194,0.39764 1.44591,0.3266 0.43638,-0.0697 0.75542,-0.28977 0.95704,-0.65991 0.16077,-0.29514 0.20396,-0.57904 0.12971,-0.85163 -0.0756,-0.27016 -0.2523,-0.52787 -0.52968,-0.77308 -0.0908,-0.0808 -0.20687,-0.17832 -0.3483,-0.293 -0.13902,-0.11337 -0.26364,-0.21922 -0.37362,-0.31678 -0.19842,-0.17709 -0.32537,-0.3354 -0.38086,-0.47542 -0.0579,-0.14134 -0.0413,-0.29558 0.0496,-0.46251 0.10279,-0.18869 0.2657,-0.28343 0.48886,-0.28422 0.22448,-0.003 0.46137,0.0632 0.71055,0.19896 0.2395,0.13046 0.45949,0.30806 0.65991,0.5333 0.20174,0.22282 0.35455,0.44611 0.45889,0.66921 l 0.0367,0.0196 0.39739,-0.72967 c -0.11838,-0.17428 -0.28681,-0.35811 -0.50436,-0.5519 -0.21382,-0.1949 -0.44125,-0.35811 -0.68317,-0.48989 -0.25885,-0.14101 -0.51227,-0.23525 -0.75964,-0.28216 -0.24363,-0.048 -0.46405,-0.0518 -0.66146,-0.0119 z m 5.24981,1.54667 -2.51354,3.68453 0.56999,0.41083 2.69441,-3.5543 z m -3.05459,4.30827 -0.50953,0.70745 0.68368,0.49299 0.51004,-0.70745 z" />
    <path
       id="path9"
       style="fill:none;fill-opacity:1;stroke:#ff010d;stroke-width:0.1;stroke-dasharray:none"
       inkscape:transform-center-y="-1.736419e-06"
       transform="translate(8.320341,11.576127)"
       d="m 33.300374,114.27149 c -8.731869,-0.13744 -0.281054,6.683 -7.059517,12.13621 -6.778463,5.45321 -17.1334809,-1.90997 -19.4665121,6.69365 -1.9721448,7.27276 8.3378041,3.9923 14.2812991,7.44864 2.205839,-1.50314 4.326002,-3.12436 6.392891,-4.81314 1.748308,-1.3809 3.307448,-2.97074 4.912362,-4.50929 1.357555,-1.37198 2.750356,-2.70283 4.223515,-3.95015 0.04901,-0.0417 0.09642,-0.0852 0.14521,-0.12712 -3.982247,-4.01231 4.417763,-12.75529 -3.429248,-12.8788 z m 20.118669,10.8412 c -3.677745,-0.21335 -7.918419,4.40467 -13.066903,3.65972 -0.471984,0.42833 -0.946172,0.85426 -1.431954,1.26711 -1.417723,1.19698 -2.749298,2.48357 -4.056083,3.80028 -1.674498,1.60396 -3.30319,3.25906 -5.126819,4.69894 -1.95646,1.59741 -3.957748,3.13806 -6.030123,4.58112 0.02291,0.0377 0.04944,0.0706 0.07183,0.10903 4.480597,7.69118 -11.567526,15.52797 -3.782715,20.30006 7.78481,4.77209 5.809801,-12.12226 14.572237,-13.28911 8.762436,-1.16686 12.280076,13.39667 19.71921,8.23722 7.439133,-5.15945 -11.287154,-8.67578 -8.701278,-17.11575 2.585877,-8.43997 16.617929,-5.77185 11.70988,-13.49427 -1.227013,-1.9306 -2.513542,-2.67524 -3.877283,-2.75435 z" />
    <path
       id="path9-8"
       style="fill:none;fill-opacity:1;stroke:#ff010d;stroke-width:0.1;stroke-dasharray:none"
       inkscape:transform-center-y="-1.736419e-06"
       transform="translate(148.79328,-33.43277)"
       d="m 32.695901,116.59255 c -4.462404,-0.0513 0.352354,3.71732 -5.898348,7.98143 -7.14366,4.87327 -19.0179993,0.13325 -22.0741053,8.68009 -3.0561059,8.54684 14.8118953,2.33318 20.0178993,9.73635 5.206005,7.40318 -14.684541,17.74588 -6.832658,23.11177 7.851883,5.36589 5.973921,-15.30437 14.818217,-16.52199 4.581876,-0.63079 8.344227,3.27674 12.074199,6.62182 0.438677,-1.52001 0.793764,-3.06089 0.910539,-4.64984 0.05183,-0.94313 0.07013,-1.88664 0.07803,-2.83032 -2.075149,-1.88006 -3.297775,-3.95473 -2.297018,-6.26732 0.496454,-1.14723 1.225692,-2.08339 2.087212,-2.87476 -0.04885,-0.68668 -0.109474,-1.37232 -0.204639,-2.05466 -0.25874,-1.50082 -0.67526,-2.96201 -1.233,-4.38061 -0.466344,-1.1829 -0.972303,-2.34706 -1.535823,-3.48557 -2.016711,0.78618 -4.157527,1.27295 -6.493144,0.69918 -8.05847,-1.97965 7.726057,-12.11647 -0.877466,-13.49995 -1.07544,-0.17294 -1.90241,-0.25829 -2.539896,-0.26562 z m 18.227311,9.94565 c -1.621091,0.0773 -3.285143,0.82021 -5.014165,1.64331 0.584923,1.18706 1.109469,2.40164 1.597319,3.63285 0.652129,1.64534 1.122664,3.34569 1.431954,5.086 0.02166,0.14719 0.03918,0.2949 0.05839,0.44235 5.247707,-2.56531 11.277332,-3.03199 7.044015,-8.1592 -1.709805,-2.07084 -3.396636,-2.72735 -5.117517,-2.64531 z m -1.58595,24.83311 c -0.0058,0.12537 -0.0068,0.25084 -0.01344,0.3762 -0.163173,2.37677 -0.774859,4.66562 -1.493449,6.92206 2.489872,1.76126 5.056009,2.69414 7.929232,1.28313 4.843676,-2.37869 -1.153447,-5.12161 -6.422347,-8.58139 z" />
    <path
       id="path9-8-5"
       style="fill:none;fill-opacity:1;stroke:#ff010d;stroke-width:0.1;stroke-dasharray:none"
       inkscape:transform-center-y="-1.736419e-06"
       transform="translate(137.88343,115.28949)"
       d="m 32.719593,118.19858 c -1.442454,-0.0778 -0.237408,1.6058 -5.36608,4.54133 -7.459889,4.26986 -20.8968474,2.23784 -24.6811813,10.66653 -3.7843337,8.42869 17.1173613,2.2996 23.0316693,9.3462 5.914308,7.0466 -17.7605516,19.94543 -9.882084,25.92297 7.878467,5.97753 6.137286,-18.48627 15.063163,-19.75539 0.821127,-0.11675 1.636464,-0.0789 2.446879,0.0791 0.313476,-0.97527 0.629036,-1.94997 0.960665,-2.9192 0.448829,-1.20859 0.937058,-2.40157 1.399398,-3.60495 0.515579,-1.39832 0.997473,-2.80837 1.358573,-4.25607 0.613139,-2.14179 1.213233,-4.28727 1.845882,-6.42338 0.01325,-0.0484 0.02657,-0.0968 0.03979,-0.14521 -1.678671,0.59099 -3.425703,0.96275 -5.291667,0.75447 -8.021363,-0.89533 11.82508,-10.3648 3.5264,-12.96045 -2.593337,-0.81114 -3.795747,-1.21054 -4.451408,-1.24592 z m 16.838249,9.84436 c -2.128122,-0.0898 -4.216301,0.79297 -6.358268,1.78284 -0.287418,0.97054 -0.54685,1.95037 -0.813904,2.9254 -0.636199,2.14952 -1.240302,4.30808 -1.857251,6.46318 -0.38589,1.5338 -0.89571,3.02941 -1.442289,4.51186 -0.46091,1.20625 -0.953276,2.40051 -1.401465,3.61167 -0.334055,0.98542 -0.653764,1.9756 -0.972034,2.96623 6.774727,3.76436 13.345888,13.39466 20.518644,11.12387 9.205618,-2.91438 -20.289308,-10.08665 -15.832108,-17.88005 4.4572,-7.7934 20.618378,-6.22009 13.385229,-13.04778 -1.808287,-1.70692 -3.532275,-2.38568 -5.226554,-2.45722 z" />
  </g>
</svg>
