<?xml version="1.0" encoding="UTF-8" standalone="no"?>
<!-- Created with Inkscape (http://www.inkscape.org/) -->

<svg
   width="210mm"
   height="297mm"
   viewBox="0 0 210 297"
   version="1.1"
   id="svg1"
   inkscape:version="1.3.2 (091e20e, 2023-11-25, custom)"
   sodipodi:docname="zīmējums.svg"
   xmlns:inkscape="http://www.inkscape.org/namespaces/inkscape"
   xmlns:sodipodi="http://sodipodi.sourceforge.net/DTD/sodipodi-0.dtd"
   xmlns="http://www.w3.org/2000/svg"
   xmlns:svg="http://www.w3.org/2000/svg">
  <sodipodi:namedview
     id="namedview1"
     pagecolor="#ffffff"
     bordercolor="#000000"
     borderopacity="0.25"
     inkscape:showpageshadow="2"
     inkscape:pageopacity="0.0"
     inkscape:pagecheckerboard="0"
     inkscape:deskcolor="#d1d1d1"
     inkscape:document-units="mm"
     inkscape:zoom="0.51717104"
     inkscape:cx="483.39907"
     inkscape:cy="574.2781"
     inkscape:window-width="1163"
     inkscape:window-height="1008"
     inkscape:window-x="748"
     inkscape:window-y="0"
     inkscape:window-maximized="0"
     inkscape:current-layer="layer1" />
  <defs
     id="defs1" />
  <g
     inkscape:label="Slānis 1"
     inkscape:groupmode="layer"
     id="layer1">
    <g
       id="g6"
       style="stroke:#000000;stroke-opacity:1;stroke-width:0.1;stroke-dasharray:none">
      <path
         id="rect1"
         style="fill:#ffffff;stroke:#000000;stroke-width:0.1;stroke-opacity:1;stroke-dasharray:none"
         d="m 106.49376,81.484949 c -17.420144,0.323867 -34.840456,0.671093 -52.263995,0.708484 -10.07703,0.09537 -20.154029,0.222702 -30.231747,0.173632 h -0.18035 c 0.07191,0.944397 0.124029,1.890381 0.154512,2.837037 0.04796,1.945838 0.05268,3.892597 0.06098,5.83892 0.0074,2.07979 0.009,4.159611 0.01034,6.239412 0.0012,2.304359 0.0013,4.608896 0.0016,6.913276 -0.0522,2.34168 0.03357,4.67704 0.168982,7.01404 0.112881,2.0648 0.387196,4.11569 0.54622,6.1774 0.156808,2.21708 0.20939,4.43941 0.24753,6.66109 0.03176,2.18703 0.04214,4.37466 0.05064,6.56188 0.0064,1.76681 0.0072,3.53354 0.0083,5.30045 5.71e-4,1.16114 9.94e-4,2.32233 0.001,3.48351 H 194.92919 c -0.0108,-0.89998 -0.0108,-1.80027 -0.0103,-2.70113 0,-2.54143 1e-5,-5.0829 0,-7.62434 -1e-5,-1.81714 5e-5,-3.63473 0,-5.45187 -7e-5,-1.84894 -9e-5,-3.69746 -5.2e-4,-5.54643 -0.001,-1.66458 -0.001,-3.32943 -0.004,-4.99401 -0.003,-1.61508 -0.007,-3.23015 -0.0212,-4.84518 -0.0174,-1.83764 -0.0398,-3.67521 -0.108,-5.51181 -0.0843,-2.20545 -0.1907,-4.409878 -0.33125,-6.612515 -0.089,-2.181935 -0.0308,-4.366626 -0.047,-6.549988 v -6.575826 -1.496032 z" />
      <path
         id="rect4-0-6"
         style="fill:#e5fffe;stroke:#000000;stroke-width:0.10000193;stroke-opacity:1;stroke-dasharray:none"
         transform="matrix(0.99565256,0.09314496,-0.08439965,0.99643198,0,0)"
         d="m 134.77157,68.821161 c -0.73299,0.07816 -1.46595,0.156334 -2.19893,0.234595 l 1e-4,61.560084 c 0,0.24546 0.19745,0.44298 0.44291,0.44298 l 1.31262,2.1e-4 c 0.24546,0 0.44303,-0.19788 0.44303,-0.44334 z" />
      <path
         id="rect4-6-0-1"
         style="fill:#e5fffe;stroke:#000000;stroke-width:0.10000193;stroke-opacity:1;stroke-dasharray:none"
         transform="matrix(0.99565256,0.09314496,-0.08439965,0.99643198,0,0)"
         d="m 141.25116,68.130924 c -0.52656,0.056 -1.05307,0.11238 -1.57963,0.168407 -0.0615,0.07605 -0.10336,0.168795 -0.10336,0.274674 l 1e-5,62.030475 c 0,0.24547 0.19744,0.44298 0.44291,0.44298 l 1.31262,2.1e-4 c 0.24546,0 0.44303,-0.19787 0.44303,-0.44334 l 3e-5,-62.029958 c 0,-0.245462 -0.198,-0.44345 -0.44346,-0.44345 z" />
      <path
         id="rect4-7-7-3"
         style="fill:#e5fffe;stroke:#000000;stroke-width:0.10000193;stroke-opacity:1;stroke-dasharray:none"
         transform="matrix(0.99565256,0.09314496,-0.08439965,0.99643198,0,0)"
         d="m 148.24925,67.385477 c -0.73317,0.07794 -1.46631,0.156199 -2.19948,0.234129 l 1.3e-4,60.482914 c 0,0.24547 0.19797,0.44294 0.44343,0.44294 l 1.31262,2e-4 c 0.24546,0 0.44303,-0.19787 0.44303,-0.44334 z" />
      <path
         id="rect4-2-8-3"
         style="fill:#e5fffe;stroke:#000000;stroke-width:0.10000193;stroke-opacity:1;stroke-dasharray:none"
         transform="matrix(0.99565256,0.09314496,-0.08439965,0.99643198,0,0)"
         d="m 155.3008,66.633995 c -0.73299,0.07806 -1.46593,0.156596 -2.19892,0.234595 l -1.2e-4,61.65553 c 0,0.24545 0.19797,0.44293 0.44343,0.44293 l 1.31262,2.1e-4 c 0.24547,0 0.44303,-0.19788 0.44303,-0.44334 z" />
      <path
         id="rect4-0-6-0"
         style="fill:#e5fffe;stroke:#000000;stroke-width:0.10000193;stroke-opacity:1;stroke-dasharray:none"
         transform="matrix(0.99565256,0.09314496,-0.08439965,0.99643198,0,0)"
         d="m 163.23018,65.78023 c -0.73297,0.07845 -1.46561,0.160392 -2.19858,0.238711 l 1.9e-4,60.930469 c 0,0.24547 0.19795,0.44294 0.44342,0.44294 l 1.3121,2.6e-4 c 0.24546,0 0.44304,-0.19787 0.44304,-0.44334 z" />
      <path
         id="rect4-6-0-1-4"
         style="fill:#e5fffe;stroke:#000000;stroke-width:0.10000193;stroke-opacity:1;stroke-dasharray:none"
         transform="matrix(0.99565256,0.09314496,-0.08439965,0.99643198,0,0)"
         d="m 170.22605,65.020987 c -0.73291,0.07898 -1.46564,0.159915 -2.19857,0.238711 l -2.6e-4,61.678362 c 0,0.24546 0.19745,0.44298 0.44291,0.44298 l 1.31262,2.1e-4 c 0.24546,0 0.44303,-0.19788 0.44303,-0.44334 z" />
      <path
         id="rect4-7-7-3-5"
         style="fill:#e5fffe;stroke:#000000;stroke-width:0.10000193;stroke-opacity:1;stroke-dasharray:none"
         transform="matrix(0.99565256,0.09314496,-0.08439965,0.99643198,0,0)"
         d="m 176.70816,64.31755 c -0.73284,0.07964 -1.46575,0.158796 -2.19862,0.238196 l -8e-5,59.880304 c 0,0.24547 0.19745,0.44298 0.44291,0.44298 l 1.31262,2.1e-4 c 0.24547,0 0.44303,-0.19787 0.44303,-0.44334 z" />
      <path
         id="rect4-2-8-3-5"
         style="fill:#e5fffe;stroke:#000000;stroke-width:0.10000193;stroke-opacity:1;stroke-dasharray:none"
         transform="matrix(0.99565256,0.09314496,-0.08439965,0.99643198,0,0)"
         d="m 183.76008,63.552031 c -0.73276,0.08053 -1.46579,0.158474 -2.19858,0.238711 l -1.8e-4,61.066908 c 0,0.24546 0.19745,0.44298 0.44291,0.44298 l 1.31262,2.1e-4 c 0.24546,0 0.44303,-0.19788 0.44303,-0.44334 z" />
      <path
         id="rect4-6-0-1-4-3"
         style="fill:#e5fffe;stroke:#000000;stroke-width:0.10000193;stroke-opacity:1;stroke-dasharray:none"
         transform="matrix(0.99565256,0.09314496,-0.08439965,0.99643198,0,0)"
         d="m 191.61555,62.695839 c -0.45398,0.05233 -0.90874,0.0977 -1.36259,0.151229 -0.206,0.02292 -0.41217,0.04423 -0.61817,0.06712 -0.0141,0.04341 -0.0274,0.0876 -0.0274,0.135846 l 1e-5,62.030475 c 0,0.24547 0.19743,0.44298 0.4429,0.44298 l 1.31263,2.1e-4 c 0.24547,0 0.44303,-0.19787 0.44303,-0.44334 l 3e-5,-62.029957 c 0,-0.149317 -0.0779,-0.274371 -0.19043,-0.354564 z" />
      <path
         id="rect4-7-7-3-5-7"
         style="fill:#e5fffe;stroke:#000000;stroke-width:0.10000193;stroke-opacity:1;stroke-dasharray:none"
         transform="matrix(0.99565256,0.09314496,-0.08439965,0.99643198,0,0)"
         d="m 198.28803,61.954381 c -0.73307,0.07976 -1.46567,0.163479 -2.19866,0.243904 l 2.6e-4,60.380215 c 0,0.24546 0.19743,0.44299 0.4429,0.44299 l 1.31262,2.1e-4 c 0.24546,0 0.44304,-0.19788 0.44304,-0.44334 z" />
      <path
         id="rect4-2-8-3-5-4"
         style="fill:#e5fffe;stroke:#000000;stroke-width:0.10000193;stroke-opacity:1;stroke-dasharray:none"
         transform="matrix(0.99565256,0.09314496,-0.08439965,0.99643198,0,0)"
         d="m 203.14176,87.576611 -2.7e-4,35.423489 c 0,0.24547 0.19744,0.44298 0.4429,0.44298 l 1.31262,2.1e-4 c 0.24546,0 0.44304,-0.19787 0.44304,-0.44334 v -10.10261 c -0.0718,-0.84711 -0.14361,-1.69421 -0.21542,-2.54131 -0.15338,-1.8093 -0.30673,-3.61906 -0.46015,-5.42837 -0.15613,-1.84098 -0.31217,-3.68152 -0.46865,-5.52248 -0.1415,-1.657312 -0.28215,-3.31498 -0.42563,-4.972106 -0.13931,-1.607839 -0.2798,-3.215565 -0.43006,-4.82233 -0.064,-0.678253 -0.13096,-1.356267 -0.19838,-2.034133 z" />
      <path
         id="rect4-2-8-3-5-4-1-7"
         style="fill:#e5fffe;stroke:#000000;stroke-width:0.10039399;stroke-opacity:1;stroke-dasharray:none"
         transform="matrix(-0.17024885,0.9854011,-0.9989499,-0.045816,0,0)"
         d="m 82.87431,-38.040768 c 0.601246,-0.134896 1.20301,-0.266413 1.805352,-0.388382 0.54643,-0.106533 1.093943,-0.195833 1.640751,-0.2967 l -4.26e-4,-170.60589 c -1.14763,0.21364 -2.296336,0.40658 -3.445405,0.59858 z" />
      <path
         id="rect4-2-8-3-5-4-1-7-50"
         style="fill:#e5fffe;stroke:#000000;stroke-width:0.10039399;stroke-opacity:1;stroke-dasharray:none"
         transform="matrix(-0.17024885,0.9854011,-0.9989499,-0.045816,0,0)"
         d="m 74.017194,-170.33752 c 0.732975,12.15276 1.454515,24.30764 2.189214,36.46023 0.40692,6.44805 0.833387,12.89282 1.256769,19.33797 l 2.16e-4,-93.2737 -2.892333,0.49294 -0.553596,0.0943 z" />
      <path
         id="rect4-2-8-3-5-4-1-7-5"
         style="fill:#e5fffe;stroke:#000000;stroke-width:0.10039399;stroke-opacity:1;stroke-dasharray:none"
         transform="matrix(-0.17024885,0.9854011,-0.9989499,-0.045816,0,0)"
         d="m 92.035813,-39.746471 c 1.148513,-0.198475 2.297068,-0.396242 3.445668,-0.592928 l 3.08e-4,-170.951061 c -0.351612,0.0699 -0.703508,0.13484 -1.054916,0.20773 -0.797465,0.16626 -1.594301,0.33904 -2.391173,0.5115 z" />
      <path
         id="rect4-2-8-3-5-4-1-7-5-3"
         style="fill:#e5fffe;stroke:#000000;stroke-width:0.10039399;stroke-opacity:1;stroke-dasharray:none"
         transform="matrix(-0.17024885,0.9854011,-0.9989499,-0.045816,0,0)"
         d="m 101.34509,-41.341825 c 0.81756,-0.139439 1.63512,-0.279116 2.45266,-0.418519 0.33158,-0.04917 0.66252,-0.106769 0.99363,-0.161065 l -4.2e-4,-171.056981 c -1.14873,0.19792 -2.29725,0.40004 -3.44576,0.60226 z" />
      <path
         id="rect4-2-8-3-5-4-1-7-5-3-7"
         style="fill:#e5fffe;stroke:#000000;stroke-width:0.10039399;stroke-opacity:1;stroke-dasharray:none"
         transform="matrix(-0.17024885,0.9854011,-0.9989499,-0.045816,0,0)"
         d="m 110.21326,-42.994951 c 0.21279,-0.04767 0.42591,-0.08823 0.63868,-0.136783 0.93914,-0.21123 1.87355,-0.456224 2.80739,-0.707106 l -6.4e-4,-170.65551 c -1.14861,0.1958 -2.29721,0.39179 -3.44591,0.58779 z" />
      <path
         id="rect4-2-8-3-5-4-1-7-5-3-7-4"
         style="fill:#e5fffe;stroke:#000000;stroke-width:0.10039399;stroke-opacity:1;stroke-dasharray:none"
         transform="matrix(-0.17024885,0.9854011,-0.9989499,-0.045816,0,0)"
         d="m 120.58055,-45.509851 c 1.05303,-0.213335 2.10689,-0.415559 3.16101,-0.613217 0.0948,-0.01752 0.18971,-0.03311 0.28451,-0.05056 l 5.9e-4,-170.087715 c -1.02551,0.17477 -2.05102,0.34954 -3.07652,0.52432 l -0.36941,0.063 z" />
      <path
         id="rect4-2-8-3-5-4-1-7-5-3-7-4-1"
         style="fill:#e5fffe;stroke:#000000;stroke-width:0.10039399;stroke-opacity:1;stroke-dasharray:none"
         transform="matrix(-0.17024885,0.9854011,-0.9989499,-0.045816,0,0)"
         d="m 130.46771,-47.320087 c 1.14849,-0.199705 2.29708,-0.396185 3.44566,-0.592928 l 1.2e-4,-167.639215 c 0,-0.70139 -0.56469,-1.2658 -1.26607,-1.2658 l -0.91406,7e-5 c -0.70138,0 -1.26583,0.56448 -1.26583,1.26587 z" />
      <path
         id="rect4-2-0-6-3"
         style="fill:#e5fffe;stroke:#000000;stroke-width:0.10000193;stroke-opacity:1;stroke-dasharray:none"
         transform="matrix(0.99565256,0.09314496,-0.08439965,0.99643198,0,0)"
         d="m 128.6783,69.470617 c -0.49532,0.05304 -0.99073,0.104993 -1.48605,0.158102 -0.23774,0.02611 -0.47538,0.05347 -0.71313,0.07963 l 1.7e-4,59.748553 c 0,0.24546 0.19797,0.44294 0.44343,0.44294 l 1.31262,2e-4 c 0.24546,0 0.44303,-0.19788 0.44303,-0.44334 z" />
      <path
         id="rect4-9"
         style="fill:#e5fffe;stroke:#000000;stroke-width:0.10000193;stroke-opacity:1;stroke-dasharray:none"
         transform="matrix(0.99565256,0.09314496,-0.08439965,0.99643198,0,0)"
         d="m 100.89125,72.565979 c -0.73282,0.08202 -1.465682,0.163631 -2.198522,0.245448 l -2.2e-4,60.723583 c 0,0.24546 0.197443,0.44299 0.442906,0.44299 l 1.312616,2.1e-4 c 0.24547,0 0.44304,-0.19789 0.44304,-0.44335 z" />
      <path
         id="rect4-6-7"
         style="fill:#e5fffe;stroke:#000000;stroke-width:0.10000193;stroke-opacity:1;stroke-dasharray:none"
         transform="matrix(0.99565256,0.09314496,-0.08439965,0.99643198,0,0)"
         d="m 107.88629,71.784514 c -0.73296,0.08236 -1.46608,0.163178 -2.19904,0.245497 l 1.8e-4,61.493689 c 0,0.24546 0.19796,0.44294 0.44342,0.44294 l 1.31262,2.1e-4 c 0.24546,0 0.44303,-0.19788 0.44303,-0.44334 z" />
      <path
         id="rect4-7-4"
         style="fill:#e5fffe;stroke:#000000;stroke-width:0.10000193;stroke-opacity:1;stroke-dasharray:none"
         transform="matrix(0.99565256,0.09314496,-0.08439965,0.99643198,0,0)"
         d="m 114.36876,71.060817 c -0.73298,0.08219 -1.46608,0.163199 -2.19905,0.245497 l -4e-5,59.715376 c 0,0.24547 0.19796,0.44294 0.44342,0.44294 l 1.31211,2.6e-4 c 0.24546,0 0.44303,-0.19787 0.44303,-0.44334 z" />
      <path
         id="rect4-2-3"
         style="fill:#e5fffe;stroke:#000000;stroke-width:0.10000193;stroke-opacity:1;stroke-dasharray:none"
         transform="matrix(0.99565256,0.09314496,-0.08439965,0.99643198,0,0)"
         d="m 121.42086,70.272981 c -0.73321,0.08151 -1.46632,0.164275 -2.19951,0.246059 l 1.8e-4,60.92425 c 0,0.24546 0.19795,0.44294 0.44342,0.44294 l 1.31211,2.5e-4 c 0.24546,0 0.44354,-0.19792 0.44354,-0.44338 z" />
      <path
         id="rect4-2-0-9"
         style="fill:#e5fffe;stroke:#000000;stroke-width:0.10000193;stroke-opacity:1;stroke-dasharray:none"
         transform="matrix(0.99565256,0.09314496,-0.08439965,0.99643198,0,0)"
         d="m 94.797472,73.246081 c -0.732704,0.0813 -1.465667,0.159821 -2.198404,0.240769 l -1e-5,58.88922 c 0,0.24546 0.197959,0.44294 0.443421,0.44294 l 1.312107,2.6e-4 c 0.245462,0 0.443032,-0.19788 0.443032,-0.44334 z" />
      <path
         id="rect4-0"
         style="fill:#e5fffe;stroke:#000000;stroke-width:0.10000193;stroke-opacity:1;stroke-dasharray:none"
         transform="matrix(0.99565256,0.09314496,-0.08439965,0.99643198,0,0)"
         d="m 67.523808,76.128014 c -0.732887,0.07323 -1.465492,0.149352 -2.198474,0.221587 l -1.04e-4,59.861639 c 0,0.24547 0.197444,0.44298 0.442906,0.44298 l 1.312622,2.1e-4 c 0.245462,0 0.443032,-0.19787 0.443032,-0.44334 z" />
      <path
         id="rect4-6-0"
         style="fill:#e5fffe;stroke:#000000;stroke-width:0.10000193;stroke-opacity:1;stroke-dasharray:none"
         transform="matrix(0.99565256,0.09314496,-0.08439965,0.99643198,0,0)"
         d="m 74.518602,75.423327 c -0.732614,0.07604 -1.465823,0.145863 -2.198516,0.221073 l 6.6e-5,60.55553 c 0,0.24546 0.197958,0.44293 0.443421,0.44293 l 1.312106,2.6e-4 c 0.245463,0 0.443032,-0.19788 0.443032,-0.44334 z" />
      <path
         id="rect4-7-7"
         style="fill:#e5fffe;stroke:#000000;stroke-width:0.10000193;stroke-opacity:1;stroke-dasharray:none"
         transform="matrix(0.99565256,0.09314496,-0.08439965,0.99643198,0,0)"
         d="m 81.001172,74.743703 c -0.732991,0.07824 -1.465566,0.160634 -2.198622,0.238197 l -1.59e-4,58.71602 c 0,0.24546 0.197958,0.44294 0.443421,0.44294 l 1.312106,2.5e-4 c 0.245464,0 0.443032,-0.19788 0.443032,-0.44334 z" />
      <path
         id="rect4-2-8"
         style="fill:#e5fffe;stroke:#000000;stroke-width:0.10000193;stroke-opacity:1;stroke-dasharray:none"
         transform="matrix(0.99565256,0.09314496,-0.08439965,0.99643198,0,0)"
         d="m 88.052665,73.979261 c -0.732815,0.08006 -1.465758,0.15865 -2.198622,0.238197 l 2.08e-4,59.902062 c 0,0.24547 0.197958,0.44293 0.443421,0.44293 l 1.312107,2.6e-4 c 0.245462,0 0.443032,-0.19787 0.443032,-0.44334 z" />
      <path
         id="rect4-2-0-6"
         style="fill:#e5fffe;stroke:#000000;stroke-width:0.10000193;stroke-opacity:1;stroke-dasharray:none"
         transform="matrix(0.99565256,0.09314496,-0.08439965,0.99643198,0,0)"
         d="m 61.43015,76.742241 c -0.151541,0.01454 -0.302886,0.0311 -0.454431,0.04559 -0.581236,0.05988 -1.162516,0.119547 -1.743737,0.179598 l -2.01e-4,58.08487 c 0,0.24547 0.197443,0.44298 0.442906,0.44298 l 1.312621,2.1e-4 c 0.245464,0 0.443032,-0.19787 0.443032,-0.44334 z" />
      <path
         id="rect4"
         style="fill:#e5fffe;stroke:#000000;stroke-width:0.10000193;stroke-opacity:1;stroke-dasharray:none"
         transform="matrix(0.99565256,0.09314496,-0.08439965,0.99643198,0,0)"
         d="m 33.643429,79.510845 c -0.733242,0.0672 -1.465475,0.14528 -2.198874,0.210733 l 3e-5,6.717096 c 0.05964,0.658129 0.129416,1.315202 0.188041,1.973384 0.182905,2.07015 0.360087,4.140836 0.536923,6.211564 0.195714,2.294324 0.390349,4.588912 0.585046,6.883338 0.145636,2.33652 0.428208,4.65376 0.760391,6.96808 0.03826,0.27293 0.08506,0.5442 0.128358,0.81623 z" />
      <path
         id="rect4-6"
         style="fill:#e5fffe;stroke:#000000;stroke-width:0.10000193;stroke-opacity:1;stroke-dasharray:none"
         transform="matrix(0.99565256,0.09314496,-0.08439965,0.99643198,0,0)"
         d="m 40.638659,78.841901 c -0.732839,0.07169 -1.465968,0.139765 -2.198918,0.210219 l 1.75e-4,60.06698 c 0,0.24546 0.197443,0.44299 0.442906,0.44299 l 1.312621,2.1e-4 c 0.245463,0 0.443032,-0.19789 0.443032,-0.44334 z" />
      <path
         id="rect4-7"
         style="fill:#e5fffe;stroke:#000000;stroke-width:0.10000193;stroke-opacity:1;stroke-dasharray:none"
         transform="matrix(0.99565256,0.09314496,-0.08439965,0.99643198,0,0)"
         d="m 47.120868,78.213135 c -0.732768,0.07441 -1.465854,0.145365 -2.198691,0.219014 l -2.2e-5,58.184951 c 0,0.24546 0.197443,0.44298 0.442906,0.44298 l 1.312621,2.1e-4 c 0.245463,0 0.443032,-0.19788 0.443032,-0.44334 z" />
      <path
         id="rect4-2"
         style="fill:#e5fffe;stroke:#000000;stroke-width:0.10000193;stroke-opacity:1;stroke-dasharray:none"
         transform="matrix(0.99565256,0.09314496,-0.08439965,0.99643198,0,0)"
         d="m 54.172543,77.487573 c -0.732821,0.07577 -1.465754,0.150734 -2.198596,0.226265 l 6.8e-5,59.324852 c 0,0.24547 0.197443,0.44299 0.442906,0.44299 l 1.312621,2.1e-4 c 0.245463,0 0.443032,-0.19787 0.443032,-0.44334 z" />
    </g>
    <text
       xml:space="preserve"
       style="font-style:normal;font-variant:normal;font-weight:normal;font-stretch:normal;font-size:26.7249px;font-family:'Eras Demi ITC';-inkscape-font-specification:'Eras Demi ITC';fill:#000000;fill-opacity:1;stroke:#eb000b;stroke-width:0.841727;stroke-opacity:0"
       x="55.746243"
       y="115.84024"
       id="text1"
       transform="scale(0.87602188,1.141524)"><tspan
         sodipodi:role="line"
         id="tspan1"
         style="font-style:normal;font-variant:normal;font-weight:normal;font-stretch:normal;font-family:'Eras Demi ITC';-inkscape-font-specification:'Eras Demi ITC';fill:#000000;fill-opacity:1;stroke:#eb000b;stroke-width:0.841727;stroke-opacity:0"
         x="55.746243"
         y="115.84024">GLASS  GRID</tspan></text>
    <text
       xml:space="preserve"
       style="font-style:normal;font-variant:normal;font-weight:normal;font-stretch:normal;font-size:26.7249px;font-family:'Eras Demi ITC';-inkscape-font-specification:'Eras Demi ITC';fill:#000000;fill-opacity:0.197368;stroke:#eb000b;stroke-width:0.841727;stroke-opacity:0"
       x="59.696682"
       y="118.12523"
       id="text2"
       transform="scale(0.87602188,1.141524)"><tspan
         sodipodi:role="line"
         id="tspan2"
         style="font-style:normal;font-variant:normal;font-weight:normal;font-stretch:normal;font-family:'Eras Demi ITC';-inkscape-font-specification:'Eras Demi ITC';fill:#000000;fill-opacity:0.197368;stroke:#eb000b;stroke-width:0.841727;stroke-opacity:0"
         x="59.696682"
         y="118.12523">GLASS  GRID</tspan></text>
    <text
       xml:space="preserve"
       style="font-style:normal;font-variant:normal;font-weight:normal;font-stretch:normal;font-size:3.175px;font-family:'Eras Demi ITC';-inkscape-font-specification:'Eras Demi ITC';fill:#e5ffff;fill-opacity:1;stroke:#000000;stroke-width:1;stroke-dasharray:none;stroke-opacity:1"
       x="23.533478"
       y="171.38512"
       id="text3"><tspan
         sodipodi:role="line"
         id="tspan3"
         style="stroke-width:1"
         x="23.533478"
         y="171.38512" /></text>
  </g>
</svg>
